<?xml version="1.0" encoding="UTF-8"?>
<svg version="1.1" xmlns="http://www.w3.org/2000/svg" width="2048" height="1440">
<path d="M0 0 C675.84 0 1351.68 0 2048 0 C2048 475.2 2048 950.4 2048 1440 C1372.16 1440 696.32 1440 0 1440 C0 964.8 0 489.6 0 0 Z " fill="#000000" transform="translate(0,0)"/>
<path d="M0 0 C1.16582108 0.00666183 1.16582108 0.00666183 2.35519409 0.01345825 C3.23595612 0.01360931 4.11671814 0.01376038 5.02416992 0.01391602 C6.4523555 0.02939987 6.4523555 0.02939987 7.90939331 0.04519653 C9.37008743 0.04944138 9.37008743 0.04944138 10.86029053 0.05377197 C13.9783443 0.0649899 17.09611349 0.09009734 20.21408081 0.11550903 C22.32475375 0.12553675 24.43543119 0.13466296 26.54611206 0.14285278 C31.72719916 0.16493445 36.90811966 0.19842774 42.08908081 0.24050903 C42.41829025 1.19721497 42.41829025 1.19721497 42.75415039 2.17324829 C52.95324306 31.80957341 63.1717407 61.43798928 73.55415344 91.01069641 C75.65112944 96.98583452 77.73908907 102.96408652 79.82345581 108.94363403 C80.13900421 109.84880264 80.45455261 110.75397125 80.77966309 111.68656921 C82.05044508 115.33245461 83.32097307 118.97842787 84.59048462 122.62475586 C88.01105189 132.4493914 91.44688776 142.26811886 94.92501831 152.07254028 C95.53763132 153.80274217 96.15018143 155.53296633 96.76266479 157.26321411 C97.91332973 160.51359113 99.06996812 163.7617577 100.22994995 167.00881958 C100.74442916 168.46096522 101.25868403 169.91319036 101.77267456 171.36550903 C102.00936859 172.02271439 102.24606262 172.67991974 102.4899292 173.35704041 C103.46936752 176.13911041 104.08908081 178.26347981 104.08908081 181.24050903 C91.21908081 181.24050903 78.34908081 181.24050903 65.08908081 181.24050903 C61.71408081 172.24050903 61.71408081 172.24050903 60.73873901 169.11941528 C60.51577148 168.40978638 60.29280396 167.70015747 60.06307983 166.96902466 C59.84091797 166.2542395 59.6187561 165.53945435 59.38986206 164.80300903 C59.17664307 164.12302856 58.96342407 163.4430481 58.7437439 162.74246216 C57.96057491 160.2425767 57.18129484 157.74147424 56.40158081 155.24050903 C54.64845581 149.63050903 52.89533081 144.02050903 51.08908081 138.24050903 C19.40908081 137.74550903 19.40908081 137.74550903 -12.91091919 137.24050903 C-13.57091919 140.87050903 -14.23091919 144.50050903 -14.91091919 148.24050903 C-15.6264674 150.81899329 -16.39345456 153.38404579 -17.22341919 155.92800903 C-17.66254516 157.28727944 -18.10133641 158.64665802 -18.53982544 160.00613403 C-18.76428345 160.69513794 -18.98874146 161.38414185 -19.22000122 162.09402466 C-19.93641819 164.31972714 -20.62816543 166.55185301 -21.31326294 168.78738403 C-21.53909058 169.52255249 -21.76491821 170.25772095 -21.99758911 171.01516724 C-22.43305921 172.43505298 -22.86687033 173.85544879 -23.29885864 175.27639771 C-24.79923608 180.12882592 -24.79923608 180.12882592 -25.91091919 181.24050903 C-28.86797239 181.32919202 -31.80156975 181.35571199 -34.75857544 181.33816528 C-36.08821571 181.33604286 -36.08821571 181.33604286 -37.44471741 181.33387756 C-40.28765173 181.32826119 -43.1305085 181.31570595 -45.97341919 181.30300903 C-47.8959441 181.29799614 -49.81847023 181.29343287 -51.74099731 181.28933716 C-56.46433468 181.27828644 -61.18761377 181.26101086 -65.91091919 181.24050903 C-56.47487895 152.33536436 -46.42260663 123.64632849 -36.36474609 94.95347595 C-32.83878865 84.89421238 -29.32149965 74.83194756 -25.80935669 64.76785278 C-25.56011066 64.05368635 -25.31086464 63.33951992 -25.0540657 62.60371208 C-23.81882462 59.06434983 -22.58367712 55.52495494 -21.34860229 51.98553467 C-19.94709925 47.96917707 -18.54557078 43.95282836 -17.14382935 39.93655396 C-16.92350225 39.30521325 -16.70317516 38.67387255 -16.47617149 38.02340031 C-15.02189562 33.85698235 -13.56444603 29.69168269 -12.10623169 25.52664185 C-10.7349301 21.60810909 -9.37449846 17.68622128 -8.02810669 13.75906372 C-7.75015259 12.95439667 -7.47219849 12.14972961 -7.18582153 11.32067871 C-6.68925126 9.8825375 -6.19698757 8.44289772 -5.7102356 7.00140381 C-3.43052575 0.43176731 -3.43052575 0.43176731 0 0 Z " fill="#FCFCFC" transform="translate(494.9109191894531,512.7594909667969)"/>
<path d="M0 0 C12.73286903 12.45425045 18.20667278 28.15338225 20.375 45.5 C20.375 51.77 20.375 58.04 20.375 64.5 C-9.985 64.5 -40.345 64.5 -71.625 64.5 C-70.17140475 75.88297229 -70.17140475 75.88297229 -65.625 85.5 C-65.068125 86.386875 -64.51125 87.27375 -63.9375 88.1875 C-56.7247153 95.4002847 -48.63521769 96.79267726 -38.84887695 96.89819336 C-32.45971002 96.79442835 -28.02783629 94.85614067 -22.625 91.5 C-21.635 91.17 -20.645 90.84 -19.625 90.5 C-18.40268504 88.36094882 -17.48723689 86.16685697 -16.5456543 83.88989258 C-14.625 81.5 -14.625 81.5 -11.16333008 80.93237305 C-9.74015157 80.93316289 -8.31681719 80.96131656 -6.89453125 81.01171875 C-6.14411057 81.01879349 -5.39368988 81.02586823 -4.62052917 81.03315735 C-2.22516905 81.06113343 0.16784747 81.12386991 2.5625 81.1875 C4.18681518 81.21257908 5.81116703 81.23539294 7.43554688 81.25585938 C11.41626671 81.31096957 15.39523615 81.39725767 19.375 81.5 C18.93234741 83.23216 18.48150453 84.96222796 18.02734375 86.69140625 C17.77718506 87.65506104 17.52702637 88.61871582 17.26928711 89.61157227 C13.63464088 101.35099337 3.82601515 111.85451063 -6.90576172 117.67456055 C-26.47036462 127.42469219 -48.16797167 127.71168564 -68.84375 121.5390625 C-83.71770329 116.02004299 -94.3828779 105.38098663 -101.375 91.3125 C-102.16550524 89.39117032 -102.91357311 87.45199335 -103.625 85.5 C-104.01816406 84.43394531 -104.41132812 83.36789062 -104.81640625 82.26953125 C-111.13677992 61.72281126 -110.01191199 36.90742042 -100.4375 17.625 C-96.89969725 11.51149503 -92.64352675 6.44644737 -87.625 1.5 C-86.78001953 0.63955078 -86.78001953 0.63955078 -85.91796875 -0.23828125 C-63.53654301 -21.31276242 -22.827348 -18.921528 0 0 Z " fill="#FBFBFB" transform="translate(852.625,571.5)"/>
<path d="M0 0 C0 0.66 0 1.32 0 2 C0.57234375 2.10441406 1.1446875 2.20882812 1.734375 2.31640625 C11.00462073 5.11346315 18.28432949 15.054039 22.7265625 23.14453125 C30.73126115 39.76512475 31 52.94605516 31 72 C0.64 72 -29.72 72 -61 72 C-57.53444215 89.5524249 -57.53444215 89.5524249 -46 101 C-39.18868253 105.54087831 -29.90439735 104.56070602 -22 104 C-16.07302349 102.51623989 -11.92387056 99.70864467 -8 95 C-7.45633789 93.96794434 -6.91267578 92.93588867 -6.35253906 91.87255859 C-4 89 -4 89 -0.42480469 88.31884766 C0.99319346 88.31979212 2.41142525 88.35338739 3.828125 88.4140625 C4.95163361 88.42679703 4.95163361 88.42679703 6.09783936 88.43978882 C8.48337469 88.4733007 10.86549212 88.54856114 13.25 88.625 C14.86974273 88.65510313 16.48953863 88.68247835 18.109375 88.70703125 C22.07422775 88.77308277 26.03653509 88.87657687 30 89 C27.22261691 103.21091094 19.88729781 114.63263263 7.75 122.8125 C-10.39580233 133.54307209 -30.91095089 135.48173745 -51.23828125 130.97265625 C-60.89804437 128.47496049 -68.56926811 124.6514791 -76 118 C-76.68835938 117.40445313 -77.37671875 116.80890625 -78.0859375 116.1953125 C-89.72795713 105.44540166 -96.18310355 88.9137245 -97.17700195 73.2019043 C-97.67105894 50.00090939 -96.11252123 28.83103645 -79.33422852 11.06323242 C-74.73220394 6.46590299 -69.7120849 3.05789808 -64 0 C-63.29746094 -0.39703125 -62.59492187 -0.7940625 -61.87109375 -1.203125 C-43.2747072 -10.66011095 -18.41471344 -8.7204292 0 0 Z " fill="#FBFBFB" transform="translate(1073,564)"/>
<path d="M0 0 C13.2 0 26.4 0 40 0 C41.84672937 5.54018811 43.58746911 10.91523474 45.09716797 16.52905273 C45.284646 17.22321793 45.47212402 17.91738312 45.6652832 18.63258362 C46.27673548 20.89892605 46.88445982 23.16625001 47.4921875 25.43359375 C47.92407369 27.03677571 48.35621775 28.63988822 48.78860474 30.24293518 C49.92330645 34.4521305 51.05494391 38.66214318 52.18579102 42.87237549 C53.98699224 49.57615548 55.79313551 56.27860606 57.59878922 62.98118782 C58.22042216 65.29024629 58.84090788 67.59961026 59.46115112 69.90904236 C59.85536454 71.37484962 60.24966061 72.84063466 60.64404297 74.30639648 C60.92886189 75.36675692 60.92886189 75.36675692 61.21943474 76.44853878 C62.25891884 80.30427516 63.32093637 84.15261063 64.40826416 87.99514771 C64.6401903 88.81753716 64.87211643 89.63992662 65.11107063 90.48723698 C65.55871569 92.07033091 66.00965655 93.6524977 66.46435356 95.23358059 C67.31630569 98.24848257 68 100.85029959 68 104 C68.66 104 69.32 104 70 104 C70.1200943 102.85606277 70.2401886 101.71212555 70.36392212 100.53352356 C70.92718941 96.05439002 71.97725783 91.8093393 73.17724609 87.46362305 C73.39690536 86.65107056 73.61656464 85.83851807 73.84288025 85.00134277 C74.56458619 82.336707 75.29394971 79.67423358 76.0234375 77.01171875 C76.53096048 75.14391214 77.03800209 73.27597468 77.54458618 71.40791321 C78.87682342 66.50031904 80.21557925 61.59452642 81.5557251 56.68908691 C82.91089435 51.72413768 84.2598698 46.75750676 85.609375 41.79101562 C87.99234077 33.02465205 90.38049282 24.25971497 92.77279663 15.49589539 C94.18266146 10.33081442 95.591258 5.16538733 97 0 C109.87 0 122.74 0 136 0 C133.74962502 10.12668739 133.74962502 10.12668739 132.64306641 13.44311523 C132.39585846 14.19096786 132.14865051 14.9388205 131.89395142 15.70933533 C131.63246307 16.48459061 131.37097473 17.25984589 131.1015625 18.05859375 C130.82533051 18.88778824 130.54909851 19.71698273 130.26449585 20.57130432 C129.68337642 22.31233846 129.10006535 24.05264249 128.51464844 25.79223633 C127.6290759 28.42538079 126.75151311 31.06109348 125.875 33.69726562 C125.305162 35.40120043 124.73486448 37.10498163 124.1640625 38.80859375 C123.90662262 39.5818248 123.64918274 40.35505585 123.38394165 41.15171814 C122.06703997 45.05290794 120.65874264 48.88444842 119.09399414 52.69335938 C116.77369616 58.42140957 114.86300694 64.26697842 112.96305275 70.14570808 C112.31247168 72.15816016 111.65744311 74.16912034 111.00138855 76.17979431 C109.36935425 81.18441261 107.74397663 86.19118555 106.11962891 91.19830322 C101.24419749 106.22540669 96.36480588 121.24453868 91.04296875 136.12109375 C90.50564873 137.63135887 90.50564873 137.63135887 89.95747375 139.1721344 C84.57416147 154.02385075 77.15731737 165.77778343 62.41113281 172.74365234 C47.69082329 179.24661598 28.36286759 181.12095586 13 176 C13 167.42 13 158.84 13 150 C23.625 149.75 23.625 149.75 26.93994141 149.70214844 C32.89708801 149.4945062 36.46736663 148.96514476 41 145 C44.5244464 140.71351113 45.70970079 137.51878804 46 132 C45.29431658 128.64966437 44.15119093 125.49694132 42.9765625 122.28515625 C42.64406998 121.33801758 42.31157745 120.39087891 41.9690094 119.41503906 C40.86877986 116.29220253 39.74700583 113.1775717 38.625 110.0625 C37.84797097 107.87020397 37.07235774 105.67740565 36.2980957 103.48413086 C34.68625548 98.92644308 33.06548492 94.37208348 31.43701172 89.8203125 C29.10933723 83.31312859 26.80332722 76.79846307 24.50390625 70.28125 C21.67133398 62.25782381 18.83231449 54.23673491 15.984375 46.21875 C15.64839798 45.27281982 15.31242096 44.32688965 14.96626282 43.35229492 C14.63514999 42.42006104 14.30403717 41.48782715 13.96289062 40.52734375 C11.21466529 32.78968783 8.47029128 25.05067619 5.73257446 17.30929565 C4.95666047 15.11664544 4.17892483 12.92464713 3.40112305 10.73266602 C2.94308542 9.43770209 2.48515192 8.14270132 2.02734375 6.84765625 C1.63281006 5.73398682 1.23827637 4.62031738 0.83178711 3.47290039 C0 1 0 1 0 0 Z " fill="#FCFCFC" transform="translate(1505,560)"/>
<path d="M0 0 C10.90366133 7.88741182 17.72059588 18.69151039 20 32 C20.69296369 39.61520935 20.46729713 47.28854965 20.390625 54.92578125 C20.38315119 57.12680036 20.37746365 59.32782619 20.37347412 61.52885437 C20.35830762 67.28118736 20.31910434 73.03310701 20.2746582 78.78527832 C20.23351039 84.67124849 20.21542167 90.55728639 20.1953125 96.44335938 C20.15260039 107.96244905 20.08232517 119.48112526 20 131 C8.12 131 -3.76 131 -16 131 C-16.0093457 128.48270264 -16.01869141 125.96540527 -16.02832031 123.37182617 C-16.06220267 115.02175822 -16.11781383 106.67193448 -16.18390274 98.32206249 C-16.223284 93.2632798 -16.25551819 88.20466874 -16.27099609 83.14575195 C-16.28622446 78.25664696 -16.32077889 73.36801413 -16.36830902 68.47912025 C-16.38305935 66.62101679 -16.39103734 64.76284589 -16.39188385 62.90468407 C-16.37998532 46.32188479 -16.37998532 46.32188479 -23.3125 31.5 C-29.15832582 26.06202249 -35.1560302 25.41202923 -42.92700195 25.44702148 C-50.42213669 25.71820137 -55.55963686 28.34716787 -60.64453125 33.74609375 C-65.31932929 39.79503991 -66.29807818 46.05132262 -66.31884766 53.57568359 C-66.33391609 54.83520844 -66.33391609 54.83520844 -66.34928894 56.12017822 C-66.38003664 58.87959139 -66.3971326 61.6389079 -66.4140625 64.3984375 C-66.43278092 66.31801175 -66.45235484 68.23757782 -66.4727478 70.15713501 C-66.52400377 75.19748105 -66.56366448 80.23785374 -66.60089111 85.27832031 C-66.64097174 90.42649902 -66.69204556 95.57456745 -66.7421875 100.72265625 C-66.83886948 110.81503429 -66.92228244 120.90745809 -67 131 C-79.21 131 -91.42 131 -104 131 C-104 86.78 -104 42.56 -104 -3 C-91.79 -3 -79.58 -3 -67 -3 C-66.505 6.405 -66.505 6.405 -66 16 C-65.154375 14.824375 -64.30875 13.64875 -63.4375 12.4375 C-48.55527769 -7.25443351 -21.88043307 -11.9934672 0 0 Z " fill="#FCFCFC" transform="translate(1320,563)"/>
<path d="M0 0 C11.27218556 9.45827065 17.95125197 21.2518711 19.37890625 35.99609375 C19.37890625 37.31609375 19.37890625 38.63609375 19.37890625 39.99609375 C8.15890625 39.99609375 -3.06109375 39.99609375 -14.62109375 39.99609375 C-16.27109375 36.03609375 -17.92109375 32.07609375 -19.62109375 27.99609375 C-23.87077199 21.67099125 -28.20429514 18.83659917 -35.62109375 16.99609375 C-43.8555025 15.88640314 -51.70898067 17.47927212 -58.37109375 22.55859375 C-67.30296024 31.01492105 -69.58017945 44.26851814 -69.97460938 56.07324219 C-70.09941316 67.96931241 -67.94285287 80.95595291 -59.73046875 90.1015625 C-53.21564212 96.131507 -47.50580443 97.49677503 -38.71875 97.30078125 C-31.88966034 96.62906751 -26.54270389 94.39314606 -21.74609375 89.43359375 C-17.8070057 84.25123331 -17.8070057 84.25123331 -14.62109375 73.99609375 C-3.73109375 73.99609375 7.15890625 73.99609375 18.37890625 73.99609375 C20.57257161 82.7707552 16.37740416 92.34603115 12.23046875 100.078125 C3.56593372 113.7329935 -8.90658459 121.96470533 -24.48828125 125.6796875 C-42.87813338 129.21619753 -63.38621451 127.14749512 -79.51953125 117.2109375 C-94.383117 106.96931608 -103.23673343 92.30014588 -106.87109375 74.68359375 C-110.17315319 51.53915893 -107.38661102 27.95661303 -93.265625 8.80078125 C-70.74020605 -17.48484277 -27.39926825 -20.45049717 0 0 Z " fill="#FBFBFB" transform="translate(712.62109375,570.00390625)"/>
<path d="M0 0 C1.56047445 0.00015913 3.12095416 0.00585397 4.68139648 0.01586914 C5.5012352 0.01728409 6.32107391 0.01869904 7.16575623 0.02015686 C9.79470406 0.0257725 12.42356797 0.0383276 15.05249023 0.05102539 C16.8304838 0.05603838 18.60847869 0.06060163 20.38647461 0.06469727 C24.75437181 0.07489787 29.12208664 0.09447007 33.48999023 0.11352539 C33.48999023 11.00352539 33.48999023 21.89352539 33.48999023 33.11352539 C41.40999023 33.11352539 49.32999023 33.11352539 57.48999023 33.11352539 C57.48999023 42.35352539 57.48999023 51.59352539 57.48999023 61.11352539 C49.56999023 61.11352539 41.64999023 61.11352539 33.48999023 61.11352539 C33.53035367 70.39781096 33.58747968 79.68158176 33.67389297 88.96555519 C33.71335548 93.2767753 33.74554985 97.58779153 33.76098633 101.89916992 C33.7761612 106.06210255 33.81062089 110.22447465 33.85829926 114.38715744 C33.8731046 115.97306819 33.88103077 117.55905897 33.88187408 119.1450386 C33.8842482 121.37162867 33.91135973 123.5966752 33.9440918 125.82299805 C33.95297424 127.08874664 33.96185669 128.35449524 33.9710083 129.65859985 C34.66019591 134.24660515 36.52000528 137.62296155 40.25561523 140.44946289 C43.54496301 141.42706625 46.8347885 141.58347628 50.23999023 141.73852539 C53.82874023 141.92415039 53.82874023 141.92415039 57.48999023 142.11352539 C57.48999023 151.02352539 57.48999023 159.93352539 57.48999023 169.11352539 C39.91120827 171.31087314 20.40502878 171.70817785 5.73999023 160.36352539 C-2.21796013 153.16692791 -3.85231019 142.33291874 -4.51000977 132.11352539 C-4.64050134 126.61033784 -4.6269749 121.11009942 -4.60766602 115.60571289 C-4.60579721 114.02816818 -4.60437549 112.45062289 -4.6033783 110.87307739 C-4.59958955 106.75336052 -4.58979105 102.6336798 -4.57867432 98.51397705 C-4.56838121 94.2971648 -4.56386387 90.08034662 -4.55883789 85.86352539 C-4.54816494 77.61350708 -4.53059834 69.36352492 -4.51000977 61.11352539 C-10.45000977 61.11352539 -16.39000977 61.11352539 -22.51000977 61.11352539 C-22.51000977 51.87352539 -22.51000977 42.63352539 -22.51000977 33.11352539 C-16.57000977 33.11352539 -10.63000977 33.11352539 -4.51000977 33.11352539 C-4.52161133 30.81512695 -4.53321289 28.51672852 -4.54516602 26.14868164 C-4.55295685 23.93131651 -4.55903346 21.71395288 -4.56494141 19.49658203 C-4.56998116 17.95132773 -4.57681296 16.40607823 -4.58544922 14.86083984 C-4.59753053 12.6442751 -4.60324149 10.42777321 -4.60766602 8.21118164 C-4.6128273 7.51638199 -4.61798859 6.82158234 -4.62330627 6.10572815 C-4.62350253 4.44123209 -4.57190105 2.7768704 -4.51000977 1.11352539 C-3.51000977 0.11352539 -3.51000977 0.11352539 0 0 Z " fill="#FAFAFA" transform="translate(1438.510009765625,526.886474609375)"/>
<path d="M0 0 C12.21 0 24.42 0 37 0 C37 10.89 37 21.78 37 33 C45.25 33 53.5 33 62 33 C62.02682159 37.47920597 62.04675177 41.95825351 62.0625 46.4375 C62.07087891 47.71689453 62.07925781 48.99628906 62.08789062 50.31445312 C62.09111328 51.52939453 62.09433594 52.74433594 62.09765625 53.99609375 C62.10289307 55.12200928 62.10812988 56.2479248 62.11352539 57.40795898 C62 60 62 60 61 61 C59.21928754 61.08726223 57.4351686 61.10699041 55.65234375 61.09765625 C54.57275391 61.09443359 53.49316406 61.09121094 52.38085938 61.08789062 C51.24455078 61.07951172 50.10824219 61.07113281 48.9375 61.0625 C47.79732422 61.05798828 46.65714844 61.05347656 45.48242188 61.04882812 C42.65489649 61.03699747 39.8274736 61.0205141 37 61 C37.06137707 69.85852938 37.13860164 78.71674101 37.23571491 87.57495117 C37.28032454 91.68878191 37.31960096 95.80251577 37.34643555 99.91650391 C37.37256299 103.89134642 37.41303092 107.86581421 37.46318626 111.84042358 C37.47979148 113.35211504 37.4913451 114.86387121 37.49761391 116.37564087 C37.45638805 127.55143672 37.45638805 127.55143672 41 138 C45.31943894 141.13628827 49.67262778 141.51106296 54.875 141.6875 C55.56335938 141.72166016 56.25171875 141.75582031 56.9609375 141.79101562 C58.64008613 141.87264091 60.32001168 141.9380157 62 142 C62.02886537 146.31248609 62.04675255 150.62494762 62.0625 154.9375 C62.07087891 156.16919922 62.07925781 157.40089844 62.08789062 158.66992188 C62.09111328 159.83974609 62.09433594 161.00957031 62.09765625 162.21484375 C62.10289307 163.29886475 62.10812988 164.38288574 62.11352539 165.49975586 C62 168 62 168 61 169 C45.12050427 171.91664207 25.74098658 171.13506929 12 162 C9.63841878 160.11358603 7.94626692 158.35600732 6 156 C6 155.01 6 154.02 6 153 C5.34 153 4.68 153 4 153 C1.06214265 145.59149015 -0.15422938 139.17190367 -0.11352539 131.15869141 C-0.11367142 130.39703674 -0.11381744 129.63538208 -0.1139679 128.85064697 C-0.11327518 126.35092246 -0.10551299 123.85127388 -0.09765625 121.3515625 C-0.09578979 119.61135906 -0.09436696 117.87115509 -0.09336853 116.13095093 C-0.08956131 111.56401097 -0.07974642 106.99710311 -0.06866455 102.43017578 C-0.05841177 97.76465285 -0.05386264 93.09912471 -0.04882812 88.43359375 C-0.03812247 79.28904844 -0.0210677 70.1445269 0 61 C-1.28777344 61.01160156 -2.57554687 61.02320313 -3.90234375 61.03515625 C-5.58072772 61.0445327 -7.25911326 61.05363305 -8.9375 61.0625 C-9.78763672 61.07087891 -10.63777344 61.07925781 -11.51367188 61.08789062 C-12.32255859 61.09111328 -13.13144531 61.09433594 -13.96484375 61.09765625 C-14.7137085 61.10289307 -15.46257324 61.10812988 -16.23413086 61.11352539 C-18 61 -18 61 -19 60 C-19.08758003 58.00035018 -19.10696576 55.9976389 -19.09765625 53.99609375 C-19.09443359 52.78115234 -19.09121094 51.56621094 -19.08789062 50.31445312 C-19.07951172 49.03505859 -19.07113281 47.75566406 -19.0625 46.4375 C-19.05798828 45.15423828 -19.05347656 43.87097656 -19.04882812 42.54882812 C-19.03699555 39.3658658 -19.01905944 36.18292726 -19 33 C-12.73 33 -6.46 33 0 33 C0 22.11 0 11.22 0 0 Z " fill="#FCFCFC" transform="translate(901,527)"/>
<path d="M0 0 C1.23363281 -0.02126953 1.23363281 -0.02126953 2.4921875 -0.04296875 C5.125 0.1875 5.125 0.1875 11.125 2.1875 C11.125 12.7475 11.125 23.3075 11.125 34.1875 C9.475 33.8575 7.825 33.5275 6.125 33.1875 C3.64780361 33.07057415 1.16742292 33.01248702 -1.3125 33 C-2.58996094 32.98582031 -3.86742187 32.97164062 -5.18359375 32.95703125 C-11.95779802 33.37997099 -17.64042103 35.93507914 -22.875 40.1875 C-31.42426919 50.05038486 -30.20742906 63.3181435 -30.2890625 75.56640625 C-30.30779665 77.34717178 -30.32737169 79.12792865 -30.3477478 80.90867615 C-30.39883785 85.56921249 -30.4385866 90.22977754 -30.47589111 94.89044189 C-30.52315644 100.49658798 -30.5846542 106.1025942 -30.64373779 111.70862579 C-30.73166774 120.20152668 -30.80163387 128.69440461 -30.875 137.1875 C-42.755 137.1875 -54.635 137.1875 -66.875 137.1875 C-66.875 92.9675 -66.875 48.7475 -66.875 3.1875 C-54.995 3.1875 -43.115 3.1875 -30.875 3.1875 C-30.545 10.4475 -30.215 17.7075 -29.875 25.1875 C-28.823125 22.4340625 -28.823125 22.4340625 -27.75 19.625 C-23.95845675 10.64780845 -20.07860218 6.28950601 -11.2421875 2.1328125 C-7.4098382 0.60240238 -4.12778184 0.03214783 0 0 Z " fill="#FEFEFE" transform="translate(1189.875,556.8125)"/>
<path d="M0 0 C12.21 0 24.42 0 37 0 C37 44.22 37 88.44 37 134 C24.79 134 12.58 134 0 134 C0 89.78 0 45.56 0 0 Z " fill="#FBFBFB" transform="translate(1364,560)"/>
<path d="M0 0 C1.24257568 0.00193359 2.48515137 0.00386719 3.76538086 0.00585938 C11.43127125 0.04190353 19.00212397 0.3181319 26.64453125 0.9140625 C30.05925054 1.1071461 33.39840735 1.10901022 36.8137207 1.04199219 C45.86200251 0.87759962 54.74656602 1.46228075 63.75 2.375 C64.90209961 2.48440918 66.05419922 2.59381836 67.24121094 2.70654297 C75.12344908 3.5661565 83.09270854 4.85280637 90.375 8.125 C90.705 9.115 91.035 10.105 91.375 11.125 C111.835 11.125 132.295 11.125 153.375 11.125 C153.045 11.785 152.715 12.445 152.375 13.125 C-77.8 13.62 -77.8 13.62 -312.625 14.125 C-312.625 13.135 -312.625 12.145 -312.625 11.125 C-310.85249311 11.12418285 -310.85249311 11.12418285 -309.04417801 11.12334919 C-281.00516215 11.10931058 -252.96626831 11.06958344 -224.92733915 10.99814438 C-221.47760156 10.98937744 -218.02786346 10.98082766 -214.578125 10.97241211 C-213.54793677 10.96989352 -213.54793677 10.96989352 -212.49693665 10.96732404 C-201.37073928 10.94064094 -190.24459342 10.93155803 -179.11836734 10.92895857 C-167.70514052 10.92590108 -156.29210135 10.90360524 -144.87893367 10.86447543 C-138.46687788 10.84310412 -132.05507425 10.83056613 -125.64298248 10.83884621 C-119.61170723 10.84636003 -113.58094404 10.83067191 -107.54976273 10.79693985 C-105.33257939 10.78867438 -103.11534544 10.78899422 -100.89816666 10.79840279 C-97.87740354 10.80995549 -94.85833804 10.79101184 -91.83770752 10.76423645 C-90.95444078 10.77490971 -90.07117404 10.78558297 -89.16114163 10.79657966 C-84.0864396 10.75875589 -84.0864396 10.75875589 -80.17420578 7.64754772 C-79.66296787 6.81510697 -79.15172997 5.98266623 -78.625 5.125 C-66.24041867 -1.06729067 -45.57571446 0.7892196 -31.97436523 1.06030273 C-27.51906089 1.14804561 -23.19674062 1.14614032 -18.765625 0.640625 C-12.51459183 -0.06879112 -6.28467157 -0.0238459 0 0 Z " fill="#182740" transform="translate(1033.625,713.875)"/>
<path d="M0 0 C2.52238411 2.52238411 2.98110385 4.58489986 4.04711914 7.9909668 C4.44415543 9.24955002 4.84119171 10.50813324 5.2502594 11.80485535 C5.6788509 13.18621908 6.10714238 14.56767593 6.53515625 15.94921875 C6.9779159 17.36460912 7.42107243 18.7798754 7.86460876 20.19502258 C8.7940583 23.16547827 9.71904342 26.13727728 10.64086914 29.11010742 C11.8187398 32.90760781 13.00693223 36.70178035 14.19846439 40.49501324 C15.11613636 43.42011717 16.02853506 46.34684537 16.93935966 49.27408791 C17.37516998 50.6727072 17.81252258 52.07084693 18.25148201 53.46848106 C18.86704701 55.43140557 19.47553202 57.39639407 20.08227539 59.36206055 C20.42932022 60.47743698 20.77636505 61.59281342 21.13392639 62.74198914 C22 66 22 66 23 73 C8.15 73 -6.7 73 -22 73 C-20.70510015 65.87805083 -19.67430923 60.82505055 -17.19140625 54.375 C-15.65091902 50.01112797 -14.42636869 45.58232685 -13.1875 41.125 C-10.38465753 31.09253905 -7.17204715 21.22934282 -3.80712891 11.37304688 C-2.51979142 7.58813449 -1.25961064 3.79421387 0 0 Z " fill="#020202" transform="translate(514,549)"/>
<path d="M0 0 C7.2477325 5.40285514 10.96159838 11.85420601 13.1484375 20.6015625 C13.1484375 21.9215625 13.1484375 23.2415625 13.1484375 24.6015625 C-5.6615625 24.6015625 -24.4715625 24.6015625 -43.8515625 24.6015625 C-41.5058112 14.04568165 -39.12686061 5.73784051 -29.8515625 -0.3984375 C-21.14011979 -5.84308919 -8.69764358 -5.17235283 0 0 Z " fill="#040404" transform="translate(1055.8515625,588.3984375)"/>
<path d="M0 0 C6.07766054 4.50408239 9.80412767 10.34712974 12.08203125 17.54296875 C12.57703125 21.00796875 12.57703125 21.00796875 13.08203125 24.54296875 C-5.72796875 24.54296875 -24.53796875 24.54296875 -43.91796875 24.54296875 C-42.69934173 16.01257961 -40.07205993 7.93224408 -33.48046875 1.98046875 C-23.64248817 -5.22271789 -10.735868 -6.35606116 0 0 Z " fill="#040404" transform="translate(824.91796875,588.45703125)"/>
<path d="M0 0 C4.94845439 3.50012628 8.46053286 7.05974782 10.5625 12.8125 C11.54745547 19.27476884 10.34585121 24.48088506 6.5625 29.8125 C2.27623435 34.43931826 -2.0004213 36.61273945 -8.25 37.125 C-13.78824838 36.92720541 -18.29809206 35.75779178 -22.4609375 31.97265625 C-27.44274405 26.51300295 -28.81550497 22.5326896 -28.71875 15.19140625 C-28.09594994 9.92355578 -25.73368046 6.04387143 -21.9375 2.4375 C-15.05036024 -2.03914084 -7.87540076 -2.72059299 0 0 Z " fill="#FAFAFA" transform="translate(1391.4375,506.1875)"/>
<path d="M0 0 C0.66 0 1.32 0 2 0 C2.495 0.99 2.495 0.99 3 2 C5.71446979 2.31241455 8.33909361 2.51336592 11.0625 2.625 C12.20041992 2.68300781 12.20041992 2.68300781 13.36132812 2.7421875 C15.24047195 2.83673562 17.12020336 2.91946756 19 3 C19 2.34 19 1.68 19 1 C19.99 1 20.98 1 22 1 C22 1.66 22 2.32 22 3 C22.64960693 2.99476318 23.29921387 2.98952637 23.96850586 2.98413086 C26.95816043 2.96313497 29.94779941 2.9502687 32.9375 2.9375 C33.95908203 2.92912109 34.98066406 2.92074219 36.03320312 2.91210938 C41.45838392 2.89477653 46.72190849 3.09351752 52.10375977 3.77954102 C54.41541597 4.04829672 56.67533419 4.06641902 59 4 C60.32 4 61.64 4 63 4 C63.495 4.495 63.495 4.495 64 5 C66.59419854 5.10068807 69.15603802 5.1387005 71.75 5.125 C72.46671875 5.12886719 73.1834375 5.13273438 73.921875 5.13671875 C77.01195808 5.13103845 79.86579195 5.02938068 82.890625 4.3671875 C83.58671875 4.24601563 84.2828125 4.12484375 85 4 C85.99 4.99 85.99 4.99 87 6 C88.98821313 6.39764263 90.98944339 6.73775349 93 7 C93 7.66 93 8.32 93 9 C85.94650459 10.61883501 79.44850804 11.48944944 72.22631836 10.69482422 C63.91925102 9.82706643 56.57705493 10.56137993 48.375 11.9375 C36.54161719 13.73105363 24.96626769 14.37904363 13 14.3125 C12.24048035 14.30958954 11.48096069 14.30667908 10.69842529 14.30368042 C-2.5449403 14.22762286 -2.5449403 14.22762286 -9 13 C-9 13.66 -9 14.32 -9 15 C-9.99 15 -10.98 15 -12 15 C-12 14.01 -12 13.02 -12 12 C-13.03447266 12.03480469 -13.03447266 12.03480469 -14.08984375 12.0703125 C-15.49943359 12.09738281 -15.49943359 12.09738281 -16.9375 12.125 C-17.85402344 12.14820313 -18.77054688 12.17140625 -19.71484375 12.1953125 C-22.45370801 12.03247872 -24.57166664 11.64171575 -27.1953125 10.96484375 C-32.52317196 9.70373254 -37.51452976 10.02972922 -42.9375 10.4375 C-44.80046064 10.56593619 -46.66373912 10.68986733 -48.52734375 10.80859375 C-49.33937256 10.86845459 -50.15140137 10.92831543 -50.98803711 10.98999023 C-53 11 -53 11 -55 10 C-55 10.99 -55 11.98 -55 13 C-55.99 12.67 -56.98 12.34 -58 12 C-58 10.35 -58 8.7 -58 7 C-56.35 7 -54.7 7 -53 7 C-53 6.01 -53 5.02 -53 4 C-52.01128906 4.16242187 -51.02257812 4.32484375 -50.00390625 4.4921875 C-45.98285951 5.06474409 -41.99382325 5.14815694 -37.9375 5.125 C-36.9155957 5.13080078 -36.9155957 5.13080078 -35.87304688 5.13671875 C-31.79678985 5.12888732 -28.00520069 4.7049571 -24 4 C-21.3724345 3.78148583 -18.75598368 3.59034762 -16.125 3.4375 C-15.12146484 3.37272461 -15.12146484 3.37272461 -14.09765625 3.30664062 C-9.39097632 3.02097508 -4.71515219 2.96308046 0 3 C0 2.01 0 1.02 0 0 Z " fill="#1A2F46" transform="translate(1019,731)"/>
<path d="M0 0 C153.78 0 307.56 0 466 0 C465.67 0.66 465.34 1.32 465 2 C234.825 2.495 234.825 2.495 0 3 C0 2.01 0 1.02 0 0 Z " fill="#4D83D4" transform="translate(721,725)"/>
<path d="M0 0 C1.99110401 0.38290462 3.99100513 0.72604615 6 1 C6 1.66 6 2.32 6 3 C-1.05349541 4.61883501 -7.55149196 5.48944944 -14.77368164 4.69482422 C-23.08074898 3.82706643 -30.42294507 4.56137993 -38.625 5.9375 C-50.45838281 7.73105363 -62.03373231 8.37904363 -74 8.3125 C-74.75951965 8.30958954 -75.51903931 8.30667908 -76.30157471 8.30368042 C-89.5449403 8.22762286 -89.5449403 8.22762286 -96 7 C-96 7.66 -96 8.32 -96 9 C-96.99 9 -97.98 9 -99 9 C-99 8.01 -99 7.02 -99 6 C-101.64 5.67 -104.28 5.34 -107 5 C-107 4.01 -107 3.02 -107 2 C-105.84846184 1.9845388 -105.84846184 1.9845388 -104.67366028 1.96876526 C-97.33679084 1.86961609 -89.99998172 1.766967 -82.66321278 1.66066074 C-78.89390601 1.6061614 -75.12459132 1.55288292 -71.35522461 1.50268555 C-50.64610049 1.24610875 -50.64610049 1.24610875 -29.94921875 0.52734375 C-29.15296585 0.49024796 -28.35671295 0.45315216 -27.53633118 0.41493225 C-21.60170072 0.10323078 -15.67976965 -0.40137338 -9.81108093 -1.35609436 C-5.74962556 -1.98992432 -3.5212428 -2.11274568 0 0 Z " fill="#15273B" transform="translate(1106,737)"/>
<path d="M0 0 C1.24257568 0.00193359 2.48515137 0.00386719 3.76538086 0.00585938 C11.43127125 0.04190353 19.00212397 0.3181319 26.64453125 0.9140625 C30.06003096 1.10719023 33.40005883 1.10882486 36.81616211 1.04223633 C46.07386255 0.87288218 55.16312761 1.50410228 64.375 2.4375 C65.61088867 2.55528809 66.84677734 2.67307617 68.12011719 2.79443359 C69.27672852 2.92027832 70.43333984 3.04612305 71.625 3.17578125 C73.17960937 3.34074097 73.17960937 3.34074097 74.765625 3.5090332 C77.58322315 4.17415298 78.60357428 4.88758922 80.375 7.125 C76.31256703 7.185102 72.25025281 7.21927145 68.1875 7.25 C67.07568359 7.26675781 65.96386719 7.28351562 64.81835938 7.30078125 C58.78355883 7.33458966 52.95004491 7.11979338 46.96463013 6.41275024 C30.18005336 4.46936214 13.2865179 4.82242751 -3.58422852 4.86425781 C-8.27391804 4.8757263 -12.96338037 4.8690205 -17.65306187 4.85711288 C-21.3104775 4.84984782 -24.96784016 4.85220215 -28.62525749 4.85736847 C-30.35418666 4.85868822 -32.08312088 4.8571171 -33.81204414 4.85240936 C-42.41764372 4.83408273 -50.67391568 4.95245324 -59.14689636 6.67776489 C-63.21823583 7.41253882 -67.25223215 7.34114963 -71.375 7.25 C-72.179375 7.24097656 -72.98375 7.23195313 -73.8125 7.22265625 C-75.75013614 7.19958915 -77.687614 7.16374772 -79.625 7.125 C-77.87987968 4.94599978 -76.85942331 4.18243348 -74.11083984 3.5090332 C-73.11262207 3.39906006 -72.1144043 3.28908691 -71.0859375 3.17578125 C-69.95978027 3.04993652 -68.83362305 2.9240918 -67.67333984 2.79443359 C-65.85503662 2.61775146 -65.85503662 2.61775146 -64 2.4375 C-62.13335693 2.24534912 -62.13335693 2.24534912 -60.22900391 2.04931641 C-49.82218879 1.06176991 -39.52876451 0.90974335 -29.0859375 1.1171875 C-25.59473512 1.16900384 -22.23403292 1.03631166 -18.765625 0.640625 C-12.51459183 -0.06879112 -6.28467157 -0.0238459 0 0 Z " fill="#0E1727" transform="translate(1033.625,713.875)"/>
<path d="M0 0 C55.44 0 110.88 0 168 0 C168 0.66 168 1.32 168 2 C84.84 2.495 84.84 2.495 0 3 C0 2.01 0 1.02 0 0 Z " fill="#313372" transform="translate(721,725)"/>
<path d="M0 0 C3.97535841 0.01621492 7.94971934 -0.0000024 11.92504883 -0.01904297 C14.4869 -0.01706246 17.04875056 -0.01322277 19.6105957 -0.00732422 C20.78163345 -0.01339691 21.9526712 -0.0194696 23.15919495 -0.02572632 C30.50618004 0.03653767 36.90964974 1.0802977 43.88793945 3.39111328 C43.88793945 3.72111328 43.88793945 4.05111328 43.88793945 4.39111328 C14.18793945 4.39111328 -15.51206055 4.39111328 -46.11206055 4.39111328 C-46.11206055 4.06111328 -46.11206055 3.73111328 -46.11206055 3.39111328 C-30.72412994 0.40885964 -15.64928209 -0.07604785 0 0 Z " fill="#213B5D" transform="translate(1042.112060546875,720.60888671875)"/>
<path d="M0 0 C0.78403198 0.0015509 1.56806396 0.00310181 2.37585449 0.00469971 C24.60174397 0.05604143 46.84065936 0.20257688 68.625 5.125 C68.625 5.455 68.625 5.785 68.625 6.125 C66.18678066 6.20759965 63.75147961 6.26623209 61.3125 6.3125 C60.30606445 6.35020508 60.30606445 6.35020508 59.27929688 6.38867188 C55.09755573 6.44756964 51.65715361 5.90811682 47.66894531 4.6315918 C41.1892569 2.81602318 35.04348631 2.69183969 28.34765625 2.7265625 C27.10108749 2.72369232 25.85451874 2.72082214 24.57017517 2.71786499 C21.94220524 2.71583336 19.31421987 2.72129971 16.6862793 2.73388672 C12.72994803 2.74982895 8.77465756 2.73406942 4.81835938 2.71484375 C-7.18237499 2.70621026 -18.8037409 2.98592164 -30.6381073 5.05662537 C-38.35586448 6.3913493 -45.79814132 6.46823851 -53.625 6.3125 C-54.97915109 6.29736346 -56.33331934 6.28369153 -57.6875 6.27148438 C-60.91713741 6.23688112 -64.14581636 6.18809527 -67.375 6.125 C-63.9394579 2.6894579 -59.07768739 2.60910017 -54.375 2.125 C-52.140625 2.29296875 -52.140625 2.29296875 -50.0625 2.625 C-45.04090949 3.39342844 -40.46087616 2.55747181 -35.48828125 1.6953125 C-23.74937194 -0.10284413 -11.84384541 -0.04173683 0 0 Z " fill="#1C304E" transform="translate(1033.375,718.875)"/>
<path d="M0 0 C0.66 0 1.32 0 2 0 C2.33 0.66 2.66 1.32 3 2 C5.71446979 2.31241455 8.33909361 2.51336592 11.0625 2.625 C12.20041992 2.68300781 12.20041992 2.68300781 13.36132812 2.7421875 C15.24047195 2.83673562 17.12020336 2.91946756 19 3 C19 2.34 19 1.68 19 1 C19.99 1 20.98 1 22 1 C22 1.66 22 2.32 22 3 C22.64960693 2.99476318 23.29921387 2.98952637 23.96850586 2.98413086 C26.95816043 2.96313497 29.94779941 2.9502687 32.9375 2.9375 C33.95908203 2.92912109 34.98066406 2.92074219 36.03320312 2.91210938 C43.49226267 2.88827851 50.76031448 3.07621692 58 5 C54.80257875 6.59871063 51.3048131 6.38476374 47.78515625 6.5546875 C46.52288963 6.61775589 46.52288963 6.61775589 45.23512268 6.68209839 C35.93465184 7.1066169 26.63799167 7.15086257 17.3293457 7.13037109 C14.43630758 7.12499779 11.54342418 7.13036419 8.65039062 7.13671875 C-2.93358007 7.14040874 -14.44270267 6.78679593 -26 6 C-26.33 5.34 -26.66 4.68 -27 4 C-24.16796875 4.04882812 -24.16796875 4.04882812 -21.3359375 4.09765625 C-18.90296748 4.04737642 -18.90296748 4.04737642 -16.15625 3.5 C-12.75844606 2.96173403 -9.56271423 2.90242128 -6.125 2.9375 C-4.97257813 2.94652344 -3.82015625 2.95554687 -2.6328125 2.96484375 C-1.76398437 2.97644531 -0.89515625 2.98804688 0 3 C0 2.01 0 1.02 0 0 Z " fill="#1E3956" transform="translate(1019,731)"/>
<path d="M0 0 C1.01900391 0.00676758 1.01900391 0.00676758 2.05859375 0.01367188 C3.70576874 0.0252717 5.35289726 0.04319801 7 0.0625 C7 0.7225 7 1.3825 7 2.0625 C-9.39085746 4.80007353 -25.37778438 6.46073902 -42 6.375 C-42.75834137 6.37218018 -43.51668274 6.36936035 -44.29800415 6.36645508 C-57.54446446 6.29021335 -57.54446446 6.29021335 -64 5.0625 C-63.67 4.0725 -63.34 3.0825 -63 2.0625 C-62.14341797 2.0470388 -62.14341797 2.0470388 -61.26953125 2.03126526 C-55.29921242 1.92266614 -49.32902837 1.80811535 -43.35888672 1.69018555 C-41.13398065 1.64700704 -38.90904508 1.60532072 -36.68408203 1.56518555 C-33.47679779 1.50706697 -30.2696597 1.44349454 -27.0625 1.37890625 C-25.58233398 1.35383751 -25.58233398 1.35383751 -24.07226562 1.32826233 C-15.99198349 1.15687997 -8.07833741 -0.07212801 0 0 Z " fill="#101E2D" transform="translate(1074,738.9375)"/>
<path d="M0 0 C0.99918961 -0.00095673 1.99837921 -0.00191345 3.02784729 -0.00289917 C5.12444116 -0.00357452 7.2210372 -0.00176569 9.31762695 0.00244141 C12.49239898 0.0077931 15.6670292 0.00247717 18.84179688 -0.00390625 C27.8354287 -0.00655572 36.75250906 0.00104844 45.70922852 0.91455078 C49.26181401 1.2435007 52.74883137 1.18966628 56.31640625 1.1328125 C63.421924 1.06182186 70.43047909 1.40327876 77.515625 1.921875 C80.50324378 2.0993573 83.39196979 2.11397179 86.37890625 2.0078125 C90.06640625 2.1328125 90.06640625 2.1328125 91.796875 3.640625 C92.21582031 4.13304687 92.63476562 4.62546875 93.06640625 5.1328125 C89.00397328 5.1929145 84.94165906 5.22708395 80.87890625 5.2578125 C79.76708984 5.27457031 78.65527344 5.29132812 77.50976562 5.30859375 C71.37160629 5.3429812 65.4286858 5.10847077 59.33676147 4.41424561 C43.6215154 2.63738601 27.89189163 2.90355064 12.10223389 2.9954834 C8.13914166 3.01629028 4.17602223 3.02515 0.21289062 3.03515625 C-7.50267618 3.0563267 -15.21811199 3.09026043 -22.93359375 3.1328125 C-22.60359375 2.4728125 -22.27359375 1.8128125 -21.93359375 1.1328125 C-14.79259922 -0.24649626 -7.2496253 -0.01571781 0 0 Z " fill="#121E32" transform="translate(1020.93359375,715.8671875)"/>
<path d="M0 0 C24.75 0 49.5 0 75 0 C75 0.66 75 1.32 75 2 C51.24 2 27.48 2 3 2 C3 2.66 3 3.32 3 4 C2.01 3.67 1.02 3.34 0 3 C0 2.01 0 1.02 0 0 Z " fill="#16162F" transform="translate(646,725)"/>
<path d="M0 0 C0 0.66 0 1.32 0 2 C-9.97875837 3.76974563 -19.5749534 4.28835904 -29.68017578 4.20581055 C-32.02517372 4.1873013 -34.36977956 4.18530346 -36.71484375 4.18554688 C-38.22656589 4.1806383 -39.73828539 4.17481288 -41.25 4.16796875 C-42.2860437 4.16629951 -42.2860437 4.16629951 -43.34301758 4.16459656 C-47.32581196 4.12580827 -51.09090743 3.76064932 -55 3 C-54.67 2.34 -54.34 1.68 -54 1 C-52.48200806 1.00785522 -52.48200806 1.00785522 -50.93334961 1.01586914 C-47.10328083 1.03425632 -43.27321576 1.04555242 -39.44311523 1.05493164 C-37.79955383 1.05989612 -36.15599668 1.06666991 -34.51245117 1.07543945 C-24.93787516 1.12516991 -15.45670266 0.95891387 -5.90844727 0.21655273 C-3 0 -3 0 0 0 Z " fill="#0B1621" transform="translate(1065,741)"/>
<path d="M0 0 C11.72098848 -0.10709533 23.31556633 0.00859351 35 1 C35 1.99 35 2.98 35 4 C33.99839844 3.91621094 32.99679687 3.83242188 31.96484375 3.74609375 C30.62242641 3.64283088 29.27997666 3.53998879 27.9375 3.4375 C26.62652344 3.33308594 25.31554687 3.22867188 23.96484375 3.12109375 C20.14478832 3.00442211 16.76142954 3.38506462 13 4 C5.80832095 4.40416048 5.80832095 4.40416048 3 3 C3 3.99 3 4.98 3 6 C2.01 5.67 1.02 5.34 0 5 C0 3.35 0 1.7 0 0 Z " fill="#101D2B" transform="translate(961,738)"/>
<path d="M0 0 C0 0.33 0 0.66 0 1 C-13.2 1 -26.4 1 -40 1 C-29.8586371 -5.7609086 -11.23393252 -2.34301758 0 0 Z " fill="#254368" transform="translate(1054,724)"/>
<path d="M0 0 C3.60400627 -0.08858959 7.20772545 -0.14091522 10.8125 -0.1875 C12.31973633 -0.22520508 12.31973633 -0.22520508 13.85742188 -0.26367188 C21.02876725 -0.33284884 27.19047709 0.76322177 34 3 C34 3.33 34 3.66 34 4 C22.33866258 4.47063694 11.46026646 3.07247015 0 1 C0 0.67 0 0.34 0 0 Z " fill="#1F3554" transform="translate(1052,721)"/>
<path d="M0 0 C18.15 0 36.3 0 55 0 C55 0.33 55 0.66 55 1 C39.49 1 23.98 1 8 1 C7.67 2.65 7.34 4.3 7 6 C6.01 6 5.02 6 4 6 C3.896875 5.38125 3.79375 4.7625 3.6875 4.125 C3.12474627 1.63473516 3.12474627 1.63473516 0 0 Z " fill="#132537" transform="translate(1003,740)"/>
<path d="M0 0 C0 0.66 0 1.32 0 2 C-8.68414125 3.9930816 -16.18740657 4.46876557 -25 3 C-19.63261254 -2.36738746 -7.27008084 -0.08519626 0 0 Z " fill="#0F1B29" transform="translate(1112,738)"/>
<path d="M0 0 C1.0725 0.165 2.145 0.33 3.25 0.5 C6.80429321 0.95760742 10.23114755 1.00753949 13.8125 0.9375 C19.73249921 0.8696274 25.23178697 1.72826799 31 3 C31 3.33 31 3.66 31 4 C26.77089131 4.05817206 22.54188591 4.09365463 18.3125 4.125 C16.51522461 4.15013672 16.51522461 4.15013672 14.68164062 4.17578125 C13.52470703 4.18222656 12.36777344 4.18867187 11.17578125 4.1953125 C9.58117065 4.21102295 9.58117065 4.21102295 7.9543457 4.22705078 C4.91873219 3.99375431 2.74376733 3.28205135 0 2 C0 1.34 0 0.68 0 0 Z " fill="#15273C" transform="translate(965,735)"/>
<path d="M0 0 C0.66 0 1.32 0 2 0 C2.33 0.66 2.66 1.32 3 2 C5.71446979 2.31241455 8.33909361 2.51336592 11.0625 2.625 C12.20041992 2.68300781 12.20041992 2.68300781 13.36132812 2.7421875 C15.24047195 2.83673562 17.12020336 2.91946756 19 3 C19 2.34 19 1.68 19 1 C19.99 1 20.98 1 22 1 C22 1.66 22 2.32 22 3 C22.66 3.33 23.32 3.66 24 4 C23 5 23 5 20.77514648 5.11352539 C19.81680908 5.10828857 18.85847168 5.10305176 17.87109375 5.09765625 C16.31938477 5.09282227 16.31938477 5.09282227 14.73632812 5.08789062 C13.64771484 5.07951172 12.55910156 5.07113281 11.4375 5.0625 C9.7987793 5.05573242 9.7987793 5.05573242 8.12695312 5.04882812 C5.41791505 5.03699826 2.70898401 5.02051543 0 5 C0 3.35 0 1.7 0 0 Z " fill="#27496C" transform="translate(1019,731)"/>
<path d="M0 0 C1.6097168 0.01450195 1.6097168 0.01450195 3.25195312 0.02929688 C4.37150391 0.05443359 5.49105469 0.07957031 6.64453125 0.10546875 C7.77568359 0.11900391 8.90683594 0.13253906 10.07226562 0.14648438 C12.86766442 0.18186917 15.66211017 0.23123927 18.45703125 0.29296875 C11.17411024 5.14824943 -0.06084486 3.39354729 -8.54296875 3.29296875 C-5.97630373 -0.00376988 -4.07133561 -0.06462437 0 0 Z " fill="#131E33" transform="translate(962.54296875,717.70703125)"/>
<path d="M0 0 C5.94 0 11.88 0 18 0 C18 0.33 18 0.66 18 1 C12.555 1.495 12.555 1.495 7 2 C7.33 2.66 7.66 3.32 8 4 C5.36 3.67 2.72 3.34 0 3 C0 2.01 0 1.02 0 0 Z " fill="#132333" transform="translate(999,739)"/>
<path d="M0 0 C2.31 0 4.62 0 7 0 C8 3 8 3 7 6 C6.01 6 5.02 6 4 6 C3.896875 5.38125 3.79375 4.7625 3.6875 4.125 C3.12474627 1.63473516 3.12474627 1.63473516 0 0 Z " fill="#414D5A" transform="translate(1003,740)"/>
<path d="M0 0 C1.98 0 3.96 0 6 0 C6 1.98 6 3.96 6 6 C5.01 6 4.02 6 3 6 C3 5.01 3 4.02 3 3 C2.01 3 1.02 3 0 3 C0 2.01 0 1.02 0 0 Z " fill="#464648" transform="translate(1366,737)"/>
<path d="M0 0 C1.32 0 2.64 0 4 0 C4 0.99 4 1.98 4 3 C4.66 3 5.32 3 6 3 C6 3.99 6 4.98 6 6 C3 6 3 6 1.3125 4.6875 C0 3 0 3 0 0 Z " fill="#919191" transform="translate(1026,792)"/>
<path d="M0 0 C0.99 0 1.98 0 3 0 C3 1.65 3 3.3 3 5 C1.68 5 0.36 5 -1 5 C-0.67 3.35 -0.34 1.7 0 0 Z " fill="#727F91" transform="translate(1125,734)"/>
<path d="M0 0 C0.33 0.99 0.66 1.98 1 3 C-1.31 3.66 -3.62 4.32 -6 5 C-6 4.34 -6 3.68 -6 3 C-4.02 2.01 -2.04 1.02 0 0 Z " fill="#0C0C0C" transform="translate(563,984)"/>
</svg>
