<?xml version="1.0" encoding="UTF-8"?>
<svg version="1.1" xmlns="http://www.w3.org/2000/svg" width="1280" height="720">
<path d="M0 0 C422.4 0 844.8 0 1280 0 C1280 237.6 1280 475.2 1280 720 C857.6 720 435.2 720 0 720 C0 482.4 0 244.8 0 0 Z " fill="#222222" transform="translate(0,0)"/>
<path d="M0 0 C95.04 0 190.08 0 288 0 C288 95.04 288 190.08 288 288 C192.96 288 97.92 288 0 288 C0 192.96 0 97.92 0 0 Z " fill="#F6DE1D" transform="translate(920,216)"/>
<path d="M0 0 C13.34225497 11.27714115 20.14749131 27.83136337 22.13671875 44.92578125 C22.13671875 49.21578125 22.13671875 53.50578125 22.13671875 57.92578125 C-13.50328125 57.92578125 -49.14328125 57.92578125 -85.86328125 57.92578125 C-83.91647892 77.39380459 -81.73490632 93.17508683 -68.86328125 107.92578125 C-66.40166912 109.88692221 -66.40166912 109.88692221 -63.67578125 111.55078125 C-62.35513672 112.40542969 -62.35513672 112.40542969 -61.0078125 113.27734375 C-53.04162586 117.45340681 -45.9991141 118.4228585 -37.05078125 118.30078125 C-35.98851318 118.29135498 -34.92624512 118.28192871 -33.83178711 118.2722168 C-19.67338399 117.9993335 -8.27936407 114.63918101 2.28515625 104.9375 C7.84160801 98.90042689 10.95956176 91.7404772 13.13671875 83.92578125 C13.34167969 83.22710937 13.54664063 82.5284375 13.7578125 81.80859375 C14.23061396 80.1847653 14.68585245 78.55583635 15.13671875 76.92578125 C16.78671875 76.92578125 18.43671875 76.92578125 20.13671875 76.92578125 C19.91958974 89.08500583 14.07714172 101.24539707 5.58203125 109.8125 C-6.7024129 120.42892857 -19.7247912 124.10364018 -35.61328125 124.11328125 C-36.66 124.12552734 -37.70671875 124.13777344 -38.78515625 124.15039062 C-53.12501587 124.17727786 -64.21739525 120.15440233 -74.80078125 110.17578125 C-88.76176257 94.94561982 -92.58058443 73.45411011 -92.0859375 53.41015625 C-90.81218551 33.47705486 -84.61786529 15.85932461 -69.86328125 1.92578125 C-49.27283323 -14.9681139 -21.66746208 -15.69634702 0 0 Z " fill="#242424" transform="translate(595.86328125,306.07421875)"/>
<path d="M0 0 C5.67675628 4.14361773 11.72079811 9.31813959 13.25 16.375 C10.34727222 18.41645437 7.42584371 20.42934807 4.5 22.4375 C3.2625 23.30858398 3.2625 23.30858398 2 24.19726562 C1.20078125 24.74189453 0.4015625 25.28652344 -0.421875 25.84765625 C-1.52160645 26.60961304 -1.52160645 26.60961304 -2.64355469 27.38696289 C-4.75 28.375 -4.75 28.375 -6.87597656 28.21264648 C-9.45643246 27.05924052 -10.63040175 25.04802705 -12.34375 22.875 C-15.6712259 19.32569237 -20.10635873 18.21591675 -24.8125 17.9375 C-29.2749566 18.43332851 -31.32907841 19.52423201 -34.75 22.375 C-37.23386059 26.10079089 -37.1304212 27.96211402 -36.75 32.375 C-35.34240659 35.13941969 -35.34240659 35.13941969 -33.75 37.375 C-33.75 38.035 -33.75 38.695 -33.75 39.375 C-33.08613281 39.63023437 -32.42226562 39.88546875 -31.73828125 40.1484375 C-25.73109044 42.61413412 -19.90364718 45.48590468 -14.04736328 48.28710938 C-11.86221211 49.32186321 -9.66570008 50.32731883 -7.46484375 51.328125 C4.25560402 56.76451799 15.40325062 63.69345671 20.25 76.375 C22.80517209 85.72726386 23.06630085 99.44123558 18.69140625 108.17578125 C11.48582762 119.16965866 2.11887702 125.52813131 -10.75 128.375 C-14.85750234 128.68053487 -18.94508144 128.69968892 -23.0625 128.6875 C-24.67801758 128.71166992 -24.67801758 128.71166992 -26.32617188 128.73632812 C-40.90010636 128.74515546 -52.90436127 123.73609122 -63.47265625 113.71875 C-70.0663231 106.93281499 -70.0663231 106.93281499 -71.75 103.375 C-71.56542969 101.43579102 -71.56542969 101.43579102 -70.75 99.375 C-68.92407227 97.91113281 -68.92407227 97.91113281 -66.56640625 96.578125 C-65.72142578 96.09472656 -64.87644531 95.61132812 -64.00585938 95.11328125 C-62.67264648 94.37658203 -62.67264648 94.37658203 -61.3125 93.625 C-60.42755859 93.11839844 -59.54261719 92.61179687 -58.63085938 92.08984375 C-52.05728816 88.375 -52.05728816 88.375 -49.75 88.375 C-48.65695009 89.73097273 -47.6251876 91.13665116 -46.625 92.5625 C-42.56336925 97.95818102 -38.15276091 101.24074636 -31.75 103.375 C-19.73498243 104.41259705 -19.73498243 104.41259705 -9.03515625 99.6640625 C-6.58007514 97.20151913 -6.50724871 94.9820827 -6.375 91.625 C-6.30152344 90.36429688 -6.30152344 90.36429688 -6.2265625 89.078125 C-6.96803002 85.24905395 -8.89075093 82.89029252 -11.75 80.375 C-14.24726225 78.80880199 -16.8531913 77.65146392 -19.5625 76.5 C-21.07883616 75.81929029 -22.59444386 75.13695589 -24.109375 74.453125 C-24.87830078 74.11087891 -25.64722656 73.76863281 -26.43945312 73.41601562 C-55.77152242 60.20046792 -55.77152242 60.20046792 -62.1875 45.5 C-65.33821499 35.72050803 -65.66325696 22.82304389 -61.0703125 13.4765625 C-55.61672311 4.79599714 -47.55692375 -2.217433 -37.5859375 -5.15625 C-25.14644661 -7.2123642 -10.94552196 -6.68996249 0 0 Z " fill="#020200" transform="translate(1163.75,352.625)"/>
<path d="M0 0 C8.91 0 17.82 0 27 0 C27.09064348 12.81385038 27.16391321 25.62748515 27.20724869 38.44158459 C27.22805551 44.39273756 27.25624646 50.34365835 27.30175781 56.29467773 C27.34546242 62.04593985 27.36918895 67.79697969 27.37950897 73.54839516 C27.38685633 75.73427131 27.40120314 77.92013636 27.42292023 80.10591698 C27.57553543 96.11405764 27.27159637 111.27761729 15.75 123.6875 C5.71891289 133.18615148 -7.27466502 133.62199911 -20.421875 133.3125 C-33.439281 132.67387011 -41.90938729 125.60959804 -50.3359375 116.34375 C-52.23583095 113.66784373 -53.10606895 111.14230309 -54 108 C-50.76595799 105.93217314 -47.51065302 103.90055718 -44.25 101.875 C-43.32960938 101.28589844 -42.40921875 100.69679688 -41.4609375 100.08984375 C-40.57148437 99.54199219 -39.68203125 98.99414062 -38.765625 98.4296875 C-37.94868164 97.91647949 -37.13173828 97.40327148 -36.29003906 96.87451172 C-34 96 -34 96 -31.79980469 96.73095703 C-29.00549342 98.70122697 -27.45738187 101.32387028 -25.5625 104.125 C-23.07127425 107.1144709 -20.99055784 107.87055984 -17.16015625 108.37109375 C-10.63214556 108.59682495 -10.63214556 108.59682495 -4.875 105.875 C-0.96199998 99.87506663 -0.69808805 94.35641559 -0.68115234 87.41455078 C-0.66608391 85.99409203 -0.66608391 85.99409203 -0.65071106 84.54493713 C-0.61992738 81.42840151 -0.6028572 78.31195162 -0.5859375 75.1953125 C-0.567222 73.02911647 -0.5476483 70.86292769 -0.5272522 68.69674683 C-0.47596552 63.00537398 -0.43632114 57.31397751 -0.39910889 51.62249756 C-0.35904761 45.81077242 -0.30796493 39.99914527 -0.2578125 34.1875 C-0.16109411 22.79172872 -0.07769513 11.39591687 0 0 Z " fill="#030300" transform="translate(1050,348)"/>
<path d="M0 0 C39.6 0 79.2 0 120 0 C120 1.65 120 3.3 120 5 C82.05 5 44.1 5 5 5 C5 31.07 5 57.14 5 84 C40.64 84 76.28 84 113 84 C113 85.32 113 86.64 113 88 C77.36 88 41.72 88 5 88 C5 116.71 5 145.42 5 175 C17.41753906 174.98259766 17.41753906 174.98259766 30.0859375 174.96484375 C35.98261678 174.95908762 41.87929397 174.95396083 47.77597427 174.94974613 C55.4225959 174.94419647 63.06920667 174.93714178 70.71582031 174.92456055 C77.41365337 174.91354561 84.11147225 174.90772229 90.80931473 174.90512276 C93.36988129 174.90326925 95.93044718 174.89965006 98.49100876 174.89426994 C102.06612307 174.88705411 105.64118823 174.88600929 109.21630859 174.88647461 C110.28445297 174.88287933 111.35259735 174.87928406 112.45310974 174.87557983 C113.42348679 174.8769545 114.39386383 174.87832916 115.39364624 174.87974548 C116.2398522 174.87882369 117.08605816 174.8779019 117.95790672 174.87695217 C120 175 120 175 122 176 C122.23976563 175.28457031 122.47953125 174.56914062 122.7265625 173.83203125 C124.19521644 170.56585301 126.01855331 168.38330551 128.375 165.6875 C132.42507922 160.96874398 136.23421551 156.12016981 139.9375 151.125 C143.72247048 146.02538391 147.55391876 140.97611402 151.5 136 C157.48523645 128.44709707 163.24719494 120.73064554 169 113 C164.78063864 106.47649019 160.24815202 100.27144502 155.5 94.125 C149.54162805 86.36269194 143.68012854 78.53921606 137.89990234 70.64355469 C133.59560501 64.77530849 129.18314717 59.00228112 124.6953125 53.2734375 C123 51 123 51 123 50 C126.0703125 49.453125 126.0703125 49.453125 130 50 C132.80184594 52.54941326 134.77901035 55.61189653 136.875 58.75 C138.11162922 60.51587012 139.3486075 62.28149584 140.5859375 64.046875 C141.17600586 64.90603516 141.76607422 65.76519531 142.37402344 66.65039062 C144.34321759 69.49596488 146.40120851 72.2487752 148.5 75 C152.44855541 80.24742232 156.35318138 85.5265564 160.25 90.8125 C160.84103516 91.61365234 161.43207031 92.41480469 162.04101562 93.24023438 C162.61013672 94.01302734 163.17925781 94.78582031 163.765625 95.58203125 C164.58836914 96.69698975 164.58836914 96.69698975 165.42773438 97.83447266 C166.92093638 99.89110336 168.3588969 101.97883412 169.796875 104.07421875 C170.52390625 105.03972656 171.2509375 106.00523437 172 107 C172.66 107 173.32 107 174 107 C175.47866606 105.39129666 175.47866606 105.39129666 176.984375 103.2578125 C177.58258057 102.44820068 178.18078613 101.63858887 178.79711914 100.80444336 C179.44156982 99.92022705 180.08602051 99.03601074 180.75 98.125 C182.11706199 96.27368456 183.48558204 94.42344501 184.85546875 92.57421875 C185.89646729 91.1672876 185.89646729 91.1672876 186.95849609 89.73193359 C190.48516901 85.01255188 194.12873615 80.38576157 197.78027344 75.76269531 C200.891981 71.7976923 203.8865834 67.78189543 206.77734375 63.65234375 C207.4005249 62.7713501 208.02370605 61.89035645 208.66577148 60.98266602 C209.86330741 59.28016618 211.04466668 57.56613921 212.20727539 55.83959961 C213.70939524 53.71359468 215.10556201 51.78568322 217 50 C220.40625 49.4765625 220.40625 49.4765625 223 50 C221.71667049 52.71300688 220.30964589 55.07979227 218.49609375 57.46875 C218.0077002 58.11569824 217.51930664 58.76264648 217.01611328 59.42919922 C216.23469971 60.45424561 216.23469971 60.45424561 215.4375 61.5 C214.33977086 62.95046567 213.24211509 64.40098687 212.14453125 65.8515625 C211.60521973 66.5621582 211.0659082 67.27275391 210.51025391 68.00488281 C208.53308173 70.61682122 206.57990519 73.24637043 204.625 75.875 C201.39566336 80.1866644 198.10490594 84.44587777 194.78881836 88.69116211 C192.38946967 91.76446738 190.00032975 94.84562611 187.61230469 97.92773438 C186.18111075 99.76722168 184.7365434 101.59521346 183.2890625 103.421875 C182.55429688 104.37578125 181.81953125 105.3296875 181.0625 106.3125 C180.43472656 107.11300781 179.80695313 107.91351563 179.16015625 108.73828125 C177.81803563 110.93376543 177.81803563 110.93376543 177.9921875 113.41015625 C179.35371558 116.90896677 181.57748211 119.38220017 184.0625 122.125 C187.54377632 126.09575195 190.87752343 130.06262795 193.9375 134.375 C197.06395186 138.77495567 200.35682056 142.99334149 203.75 147.1875 C208.58862442 153.17010742 213.25546406 159.26007479 217.81542969 165.45776367 C220.6731454 169.31987947 223.65898109 172.97495906 226.88525391 176.53710938 C228 178 228 178 228 180 C225.39453125 180.453125 225.39453125 180.453125 222 180 C219.48787973 177.90773924 217.63612372 175.36087996 215.6875 172.75 C214.83176392 171.64954346 214.83176392 171.64954346 213.95874023 170.52685547 C212.28583311 168.36563395 210.63930236 166.18677336 209 164 C208.22398437 162.97648438 207.44796875 161.95296875 206.6484375 160.8984375 C205.24137338 159.02762191 203.84178242 157.15116534 202.44921875 155.26953125 C198.20880541 149.56915501 193.79932385 143.99592335 189.4296875 138.39453125 C188.59038696 137.31860718 188.59038696 137.31860718 187.73413086 136.22094727 C186.52793013 134.67613408 185.32030461 133.13243276 184.11157227 131.58959961 C183.49596436 130.80206299 182.88035645 130.01452637 182.24609375 129.203125 C181.69107178 128.49446289 181.1360498 127.78580078 180.56420898 127.05566406 C179.04160499 125.05467677 177.61031381 123.01015791 176.1875 120.9375 C175.465625 119.968125 174.74375 118.99875 174 118 C173.34 118 172.68 118 172 118 C170.68208047 119.57041813 169.4488634 121.21191505 168.25 122.875 C167.43530547 123.98953449 166.61878217 125.10273368 165.80078125 126.21484375 C165.35299316 126.82440918 164.90520508 127.43397461 164.44384766 128.06201172 C161.83349725 131.5657252 159.1301835 134.99693292 156.4375 138.4375 C151.1281343 145.24162942 145.85970317 152.07575294 140.625 158.9375 C139.98361084 159.77659912 139.34222168 160.61569824 138.68139648 161.48022461 C138.05692627 162.30014893 137.43245605 163.12007324 136.7890625 163.96484375 C136.19625992 164.72857142 135.60345734 165.4922991 134.99269104 166.27917004 C132.95934849 168.9615862 132.95934849 168.9615862 131.31530762 171.85406208 C126.66625744 179.39050478 126.66625744 179.39050478 122.27987671 180.99498558 C119.01056362 181.35373509 115.90439255 181.36268057 112.6171875 181.2487793 C111.37720001 181.25010518 110.13721252 181.25143106 108.85964966 181.25279713 C105.52347961 181.2459667 102.19495998 181.19187019 98.86016846 181.11408234 C95.72461493 181.0511182 92.58923487 181.04847159 89.453125 181.04064941 C80.30150728 180.98308406 71.15069693 180.82950854 62 180.6875 C41.54 180.460625 21.08 180.23375 0 180 C0 120.6 0 61.2 0 0 Z " fill="#F4F4F4" transform="translate(73,248)"/>
<path d="M0 0 C15.2897523 11.07372985 22.93546363 26.63735095 25.90869141 45.01269531 C28.73672102 67.39393114 24.49130908 90.01648699 11.23828125 108.62109375 C3.23267205 118.53365706 -8.68276895 125.48359638 -21.41601562 126.9206543 C-24.1433065 127.05716804 -26.84376263 127.08914868 -29.57421875 127.05859375 C-30.53690674 127.05029541 -31.49959473 127.04199707 -32.49145508 127.03344727 C-46.00989257 126.71398877 -57.26844111 122.5657981 -67.26953125 113.296875 C-73.7637291 106.4704657 -77.29791742 99.28059708 -80.76171875 90.62109375 C-81.09171875 116.36109375 -81.42171875 142.10109375 -81.76171875 168.62109375 C-83.41171875 168.62109375 -85.06171875 168.62109375 -86.76171875 168.62109375 C-86.76171875 111.20109375 -86.76171875 53.78109375 -86.76171875 -5.37890625 C-85.11171875 -5.37890625 -83.46171875 -5.37890625 -81.76171875 -5.37890625 C-81.43171875 6.17109375 -81.10171875 17.72109375 -80.76171875 29.62109375 C-79.44171875 26.32109375 -78.12171875 23.02109375 -76.76171875 19.62109375 C-68.66312978 5.39071598 -56.9708527 -3.25817298 -41.27734375 -7.68359375 C-26.9070163 -10.52572518 -12.33265555 -8.09393597 0 0 Z M-65.94921875 12.3828125 C-79.91619074 29.63081886 -83.43270667 50.15297044 -81.57861328 71.75439453 C-80.07753398 85.84581829 -74.19355888 99.81276591 -63.76171875 109.62109375 C-62.96701172 110.42740234 -62.96701172 110.42740234 -62.15625 111.25 C-51.30460594 121.53457477 -38.5302927 122.07772385 -24.4375 121.8984375 C-18.24172653 121.69584266 -13.18553226 120.70258779 -7.76171875 117.62109375 C-6.98183594 117.19699219 -6.20195312 116.77289063 -5.3984375 116.3359375 C7.82679573 108.356343 15.38009542 94.23872739 19.23828125 79.62109375 C19.44195312 78.92757812 19.645625 78.2340625 19.85546875 77.51953125 C24.9511449 57.20663042 20.4234882 34.74213303 10.11328125 16.93359375 C3.2624748 6.70167808 -6.05466957 0.98743395 -17.76171875 -2.37890625 C-35.58966953 -5.87722112 -53.40593459 -1.07508613 -65.94921875 12.3828125 Z " fill="#EFEFEF" transform="translate(397.76171875,303.37890625)"/>
<path d="M0 0 C13.34225497 11.27714115 20.14749131 27.83136337 22.13671875 44.92578125 C22.13671875 49.21578125 22.13671875 53.50578125 22.13671875 57.92578125 C-13.50328125 57.92578125 -49.14328125 57.92578125 -85.86328125 57.92578125 C-83.91647892 77.39380459 -81.73490632 93.17508683 -68.86328125 107.92578125 C-66.40166912 109.88692221 -66.40166912 109.88692221 -63.67578125 111.55078125 C-62.35513672 112.40542969 -62.35513672 112.40542969 -61.0078125 113.27734375 C-53.04162586 117.45340681 -45.9991141 118.4228585 -37.05078125 118.30078125 C-35.98851318 118.29135498 -34.92624512 118.28192871 -33.83178711 118.2722168 C-19.67338399 117.9993335 -8.27936407 114.63918101 2.28515625 104.9375 C7.84160801 98.90042689 10.95956176 91.7404772 13.13671875 83.92578125 C13.34167969 83.22710937 13.54664063 82.5284375 13.7578125 81.80859375 C14.23061396 80.1847653 14.68585245 78.55583635 15.13671875 76.92578125 C16.78671875 76.92578125 18.43671875 76.92578125 20.13671875 76.92578125 C19.91958974 89.08500583 14.07714172 101.24539707 5.58203125 109.8125 C-6.7024129 120.42892857 -19.7247912 124.10364018 -35.61328125 124.11328125 C-36.66 124.12552734 -37.70671875 124.13777344 -38.78515625 124.15039062 C-53.12501587 124.17727786 -64.21739525 120.15440233 -74.80078125 110.17578125 C-88.76176257 94.94561982 -92.58058443 73.45411011 -92.0859375 53.41015625 C-90.81218551 33.47705486 -84.61786529 15.85932461 -69.86328125 1.92578125 C-49.27283323 -14.9681139 -21.66746208 -15.69634702 0 0 Z M-72.86328125 11.92578125 C-81.98528038 23.42588911 -86.86328125 38.32011479 -86.86328125 52.92578125 C-52.87328125 52.92578125 -18.88328125 52.92578125 16.13671875 52.92578125 C16.13671875 36.0333501 13.06844017 20.21671106 1.015625 7.59765625 C-2.3549577 4.59846832 -5.97444421 2.19821472 -9.86328125 -0.07421875 C-10.51167969 -0.46609375 -11.16007813 -0.85796875 -11.828125 -1.26171875 C-32.88894418 -12.97653024 -57.40672345 -4.51957991 -72.86328125 11.92578125 Z " fill="#F2F2F2" transform="translate(595.86328125,306.07421875)"/>
<path d="M0 0 C8.43292806 6.68620951 12.08889931 14.18290362 14.3125 24.6875 C14.57717641 27.78677539 14.52362562 30.5733971 14.3125 33.6875 C12.6625 33.6875 11.0125 33.6875 9.3125 33.6875 C9.16554688 32.63691406 9.01859375 31.58632813 8.8671875 30.50390625 C7.26173878 20.06538066 5.05433474 12.37065691 -3.375 5.375 C-15.23456652 -2.83546913 -29.65867017 -3.51514423 -43.53125 -1.8515625 C-53.52491716 -0.00490661 -61.1545924 3.79785884 -67.53515625 11.83984375 C-70.80281197 17.0791697 -71.44042494 23.64057154 -70.6875 29.6875 C-69.37928801 35.10431526 -67.06627438 40.09834067 -62.6875 43.6875 C-52.58050808 49.85886252 -40.04281107 52.17633387 -28.64453125 54.90234375 C5.95835433 63.19081826 5.95835433 63.19081826 14.3125 75.875 C18.73460895 83.41408157 18.09479266 92.89337636 16.95703125 101.3203125 C14.82913229 109.28922271 8.86683908 115.25511139 2.21875 119.8046875 C-8.56452924 125.99223582 -18.86503216 127.03776946 -31.125 127 C-32.16720703 127.01611328 -33.20941406 127.03222656 -34.28320312 127.04882812 C-47.70927384 127.05715179 -60.47073957 123.67919854 -70.5625 114.4375 C-78.1029459 106.19351967 -81.84025838 94.5027074 -81.875 83.4375 C-81.813125 82.2 -81.75125 80.9625 -81.6875 79.6875 C-80.0375 79.6875 -78.3875 79.6875 -76.6875 79.6875 C-76.51734375 80.72648437 -76.3471875 81.76546875 -76.171875 82.8359375 C-73.73989625 98.82953157 -73.73989625 98.82953157 -64.6875 111.6875 C-50.006984 121.79743234 -32.15372722 122.37959138 -14.95703125 120.21875 C-5.38799835 118.13906368 2.48350596 113.77871537 8.15625 105.71484375 C12.16513548 98.68575063 12.10804801 91.55923818 11.3125 83.6875 C9.16138466 77.16411766 4.03682626 73.12416085 -1.6875 69.6875 C-10.31877362 65.45158248 -19.13964703 63.19523992 -28.5 61.1875 C-65.62625841 52.9015024 -65.62625841 52.9015024 -73.6875 40.6875 C-77.58265411 33.03150745 -77.91393475 24.92951949 -75.9609375 16.58203125 C-74.14937968 11.12526561 -72.22390607 7.37992354 -67.6875 3.6875 C-67.17316406 3.19765625 -66.65882813 2.7078125 -66.12890625 2.203125 C-49.32131167 -13.47878773 -18.48493186 -12.01107346 0 0 Z " fill="#EFEFEF" transform="translate(829.6875,303.3125)"/>
<path d="M0 0 C5.82622381 5.31251376 9.74626188 12.59696513 10.87890625 20.40625 C10.9442406 22.34276019 10.96474928 24.28127861 10.94140625 26.21875 C10.93238281 27.19457031 10.92335938 28.17039062 10.9140625 29.17578125 C10.90246094 29.91183594 10.89085937 30.64789063 10.87890625 31.40625 C9.22890625 31.40625 7.57890625 31.40625 5.87890625 31.40625 C5.79253906 30.50003906 5.70617187 29.59382813 5.6171875 28.66015625 C4.80400743 21.61010885 3.79857283 16.06885873 -0.09765625 10.078125 C-1.12109375 8.40625 -1.12109375 8.40625 -1.12109375 6.40625 C-1.70632813 6.12652344 -2.2915625 5.84679687 -2.89453125 5.55859375 C-4.97154042 4.48365041 -6.81751719 3.28592676 -8.74609375 1.96875 C-13.27189478 -0.89900056 -17.94047636 -2.34296473 -23.12109375 -3.59375 C-23.86617187 -3.779375 -24.61125 -3.965 -25.37890625 -4.15625 C-39.09818128 -6.3450802 -52.02281619 -4.79492878 -63.8515625 2.65625 C-68.23879101 6.03917319 -71.37060349 10.15477922 -73.12109375 15.40625 C-73.26812439 17.84073818 -73.34214714 20.2799977 -73.37109375 22.71875 C-73.396875 24.01425781 -73.42265625 25.30976563 -73.44921875 26.64453125 C-73.00112614 31.78159296 -71.25477444 34.99773763 -68.05859375 38.96875 C-60.02990032 45.63085732 -50.30828576 47.98320611 -40.37109375 50.46875 C-37.81348001 51.12504824 -35.25618649 51.78259568 -32.69921875 52.44140625 C-31.4464917 52.76286621 -30.19376465 53.08432617 -28.90307617 53.41552734 C4.49112587 62.16342431 4.49112587 62.16342431 12.37890625 75.09375 C16.13570551 83.39001503 15.81770148 92.4010018 12.90625 100.9609375 C8.88176545 110.54012886 2.47308379 116.42618899 -6.96484375 120.69140625 C-23.12013874 126.88278991 -45.60077918 127.03284433 -61.68359375 120.33984375 C-63.97144661 119.16886501 -66.02256874 117.88780054 -68.12109375 116.40625 C-68.81847656 115.92542969 -69.51585937 115.44460938 -70.234375 114.94921875 C-79.80197169 107.5437908 -83.32145467 95.97316099 -85.12109375 84.40625 C-85.2991824 82.00007451 -85.28927871 79.81690106 -85.12109375 77.40625 C-83.14109375 77.40625 -81.16109375 77.40625 -79.12109375 77.40625 C-79.04632812 78.42203125 -78.9715625 79.4378125 -78.89453125 80.484375 C-77.91408038 91.49900186 -75.76323733 101.37329023 -67.43359375 109.34375 C-53.52664088 120.26110839 -35.94755417 119.62274698 -19.12109375 118.40625 C-14.3442571 117.61302682 -10.26828882 115.90249162 -6.12109375 113.40625 C-5.3528125 112.96023438 -4.58453125 112.51421875 -3.79296875 112.0546875 C1.91383084 108.27129074 6.8175835 102.59365068 8.5234375 95.86328125 C9.6360853 88.17256186 9.0816822 80.95948419 4.5078125 74.45703125 C-5.44688851 63.45195411 -23.09558413 60.74956202 -36.99414062 57.58203125 C-67.2723787 50.67762547 -67.2723787 50.67762547 -75.43359375 40.53125 C-80.05285401 31.97706434 -80.55111852 21.87133204 -78.46875 12.45703125 C-75.17130275 3.21568766 -68.68753139 -1.94375316 -60.12890625 -6.3046875 C-41.26584651 -14.38885596 -16.56098091 -12.44360996 0 0 Z " fill="#EFEFEF" transform="translate(716.12109375,305.59375)"/>
<path d="M0 0 C0 1.65 0 3.3 0 5 C-0.81082031 5.02578125 -1.62164062 5.0515625 -2.45703125 5.078125 C-15.65703357 5.75426016 -28.4281725 9.7716648 -37.75 19.625 C-49.61631794 34.40192423 -50.44861617 51.45706439 -50.51171875 69.5234375 C-50.5286039 71.36432054 -50.54675915 73.20519232 -50.56611633 75.04605103 C-50.61320654 79.84298175 -50.64327907 84.63986683 -50.66955566 89.43695068 C-50.69957031 94.35128798 -50.74602766 99.2654685 -50.79101562 104.1796875 C-50.87658123 113.78637561 -50.94413197 123.39309642 -51 133 C-52.98 133 -54.96 133 -57 133 C-57 90.1 -57 47.2 -57 3 C-55.02 3 -53.04 3 -51 3 C-50.67 11.91 -50.34 20.82 -50 30 C-48.35 26.7 -46.7 23.4 -45 20 C-37.81256232 9.51364074 -27.02580921 3.38179603 -14.7890625 0.421875 C-9.860978 -0.32354955 -4.96733457 -0.23406289 0 0 Z " fill="#E1E1E1" transform="translate(503,295)"/>
<path d="M0 0 C0.99 1.32 1.98 2.64 3 4 C2.67 4.99 2.34 5.98 2 7 C1.88153008 9.3452566 1.82296781 11.69367153 1.79467773 14.04174805 C1.78477814 14.75419678 1.77487854 15.46664551 1.76467896 16.20068359 C1.733105 18.55432824 1.70832281 20.90799306 1.68359375 23.26171875 C1.66302067 24.89411441 1.64202411 26.52650479 1.62062073 28.15888977 C1.56543656 32.45455646 1.51601117 36.75027094 1.46777344 41.04602051 C1.41753173 45.42981212 1.3618596 49.81353438 1.30664062 54.19726562 C1.19910375 62.79811843 1.09764886 71.39902928 1 80 C0.67 80 0.34 80 0 80 C0 53.6 0 27.2 0 0 Z " fill="#5F5F5F" transform="translate(316,392)"/>
</svg>
