<?xml version="1.0" encoding="UTF-8"?>
<svg version="1.1" xmlns="http://www.w3.org/2000/svg" width="460" height="460">
<path d="M0 0 C151.8 0 303.6 0 460 0 C460 151.8 460 303.6 460 460 C308.2 460 156.4 460 0 460 C0 308.2 0 156.4 0 0 Z " fill="#000000" transform="translate(0,0)"/>
<path d="M0 0 C2.70567626 1.82339052 4.53728718 3.07457436 6 6 C6.39151735 11.18760485 5.99952862 13.79209057 3 18 C0.41621131 20.86440729 -2.31101063 23.57631371 -5.04724121 26.29447937 C-5.87664892 27.12630149 -6.70605662 27.95812361 -7.5605979 28.81515247 C-9.85894434 31.11815621 -12.16171676 33.41662463 -14.46644664 35.71323693 C-16.95269973 38.19290493 -19.43317625 40.67833975 -21.91438293 43.16305542 C-26.77364934 48.02736097 -31.6382358 52.88631245 -36.5046469 57.74346908 C-42.16993475 63.39837022 -47.82998909 69.05849753 -53.48984236 74.71883712 C-63.58661102 84.81610631 -73.68820185 94.90853749 -83.79248047 104.99829102 C-93.60112341 114.79284111 -103.4062518 124.59089182 -113.20751953 134.39282227 C-113.81139525 134.99673794 -114.41527098 135.60065362 -115.03744596 136.22286978 C-115.6402698 136.82573397 -116.24309363 137.42859816 -116.86418486 138.04973096 C-128.01862831 149.20486392 -139.17635708 160.35670563 -150.33562216 171.50701505 C-154.28441311 175.45278759 -158.23222502 179.3995381 -162.17973328 183.34659386 C-166.98794421 188.15412326 -171.79803758 192.95976025 -176.61050308 197.76303085 C-179.06676396 200.21466927 -181.5222269 202.66709284 -183.9755497 205.12167168 C-186.63231495 207.77892524 -189.29211846 210.43309886 -191.95275879 213.08647156 C-192.73183641 213.86709778 -193.51091403 214.647724 -194.31360006 215.45200557 C-195.02485241 216.16003347 -195.73610476 216.86806137 -196.46891022 217.59754467 C-197.08281065 218.21074068 -197.69671109 218.82393669 -198.32921457 219.4557144 C-201.80903043 222.67206368 -204.26906292 223.44206456 -209 223.3203125 C-212.94128153 222.68909163 -215.06014511 220.23889962 -217.375 217.1875 C-218.38160848 213.66437033 -218.00299706 211.53998961 -217 208 C-212.5505363 201.96736474 -206.87953244 196.73497203 -201.58563232 191.45191956 C-200.76505758 190.62907925 -199.94448283 189.80623895 -199.09904218 188.95846409 C-196.84213067 186.69635107 -194.58302566 184.43645684 -192.32291985 182.17753613 C-189.8781012 179.73292281 -187.4361542 177.2854436 -184.99380493 174.83836365 C-180.21869273 170.05497602 -175.44083485 165.27434024 -170.66186282 160.49480916 C-166.77928723 156.61175743 -162.8975044 152.72791498 -159.0162735 148.84351921 C-148.00760675 137.82605846 -136.99685879 126.81068377 -125.98341855 115.79799474 C-125.39076543 115.20538157 -124.79811231 114.61276841 -124.1875 114.00219727 C-123.59412249 113.40886063 -123.00074498 112.815524 -122.38938633 112.20420747 C-112.75264876 102.56787719 -103.12092136 92.92655621 -93.49142823 83.28298713 C-83.59944458 73.37665794 -73.70375582 63.47404336 -63.80416417 53.57531685 C-58.24788204 48.01936707 -52.69315844 42.46187923 -47.14241791 36.90039253 C-42.42205037 32.17094451 -37.69826729 27.4449418 -32.96995351 22.72343756 C-30.55692531 20.31368551 -28.14556071 17.90232708 -25.73849106 15.48662186 C-23.1323783 12.87285434 -20.5202463 10.26525847 -17.90643311 7.65919495 C-17.14175681 6.88937509 -16.37708051 6.11955523 -15.58923221 5.32640749 C-14.89089684 4.63267092 -14.19256147 3.93893435 -13.47306442 3.22417545 C-12.87044556 2.62133923 -12.2678267 2.018503 -11.64694667 1.39739901 C-7.91031573 -1.77305239 -4.5047406 -1.00968324 0 0 Z " fill="#FCFCFC" transform="translate(320,103)"/>
<path d="M0 0 C3.39463383 0.80645997 5.03239937 2.82776657 7.12109375 5.50390625 C7.61609375 5.99890625 7.61609375 5.99890625 8.12109375 6.50390625 C8.54653235 15.15449105 8.54653235 15.15449105 6.12109375 18.50390625 C4.49884835 20.21384059 2.8269595 21.87738309 1.12109375 23.50390625 C0.39921875 24.24640625 -0.32265625 24.98890625 -1.06640625 25.75390625 C-3.5666019 28.198542 -6.1323702 30.50421939 -8.75390625 32.81640625 C-11.84550503 35.57513378 -14.71004962 38.33542954 -17.37890625 41.50390625 C-20.78554142 45.54827643 -24.62397994 48.97247134 -28.58203125 52.46875 C-31.89744221 55.40638454 -35.00155775 58.35427718 -37.69140625 61.87890625 C-40.20635966 64.89685035 -43.02188965 67.2729215 -46.00390625 69.81640625 C-48.01288543 71.53256425 -48.01288543 71.53256425 -49.87890625 74.00390625 C-52.23575029 76.94996131 -54.90334708 79.23425001 -57.78125 81.66015625 C-62.12821474 85.48095207 -66.01391233 89.70410051 -69.87890625 94.00390625 C-74.43369872 99.07111287 -79.07931516 103.87970812 -84.25390625 108.31640625 C-87.8998983 111.52174032 -91.04902436 114.90950038 -94.1796875 118.609375 C-98.35659878 123.26639102 -102.31463843 127.29372036 -108.69140625 127.81640625 C-112.01117952 127.78622649 -112.86935146 127.51000505 -115.81640625 125.62890625 C-119.18899067 122.1541223 -119.27916242 119.50531359 -119.2265625 114.81640625 C-118.65635056 111.02353581 -116.5573135 109.12279334 -113.87890625 106.50390625 C-112.21078462 104.83869582 -110.54439464 103.17175036 -108.87890625 101.50390625 C-107.75399032 100.37882219 -106.62898511 99.25382738 -105.50390625 98.12890625 C-104.9109375 97.5359375 -104.31796875 96.94296875 -103.70703125 96.33203125 C-76.22265625 68.84765625 -48.73828125 41.36328125 -21.25390625 13.87890625 C-20.67930664 13.30422607 -20.10470703 12.7295459 -19.51269531 12.13745117 C-18.04680601 10.67178092 -16.58009656 9.20693103 -15.11328125 7.7421875 C-13.44217998 6.06816472 -11.78257169 4.382655 -10.12890625 2.69140625 C-6.42542665 0.1986796 -4.36867205 -0.22837915 0 0 Z " fill="#FBFBFB" transform="translate(338.87890625,219.49609375)"/>
</svg>
