<?xml version="1.0" encoding="UTF-8"?>
<svg version="1.1" xmlns="http://www.w3.org/2000/svg" width="486" height="374">
<path d="M0 0 C160.38 0 320.76 0 486 0 C486 123.42 486 246.84 486 374 C325.62 374 165.24 374 0 374 C0 250.58 0 127.16 0 0 Z " fill="#060B13" transform="translate(0,0)"/>
<path d="M0 0 C7.84082058 5.56445331 13.46050979 12.25264426 15.80859375 21.7109375 C17.00527106 31.54078684 15.65927339 40.35478585 9.8203125 48.4765625 C5.44506523 53.64524839 1.25246677 57.49866972 -5.19140625 59.7109375 C-5.82691406 59.93265625 -6.46242187 60.154375 -7.1171875 60.3828125 C-16.49748116 63.16494369 -25.5383981 62.28396602 -34.19140625 57.7109375 C-42.34518955 52.00793522 -48.29558685 44.65469612 -50.19140625 34.7109375 C-51.13597886 23.28315744 -49.44998137 15.25872764 -42.06640625 6.3984375 C-31.08846848 -5.14200617 -14.00752084 -8.23971814 0 0 Z " fill="#DBE2EA" transform="translate(133.19140625,161.2890625)"/>
<path d="M0 0 C2.31 0 4.62 0 7 0 C7 11.55 7 23.1 7 35 C4.69 35 2.38 35 0 35 C-0.33 34.34 -0.66 33.68 -1 33 C-1.99 33.66 -2.98 34.32 -4 35 C-10.99656881 35.78993519 -10.99656881 35.78993519 -14.9375 32.6875 C-18.81732929 27.63196487 -18.65784126 22.14862295 -18 16 C-16.71236549 12.84499033 -15.12088614 10.56044307 -12 9 C-4.53333333 8.64444444 -4.53333333 8.64444444 -1 11 C-0.67 7.37 -0.34 3.74 0 0 Z " fill="#D4DBE2" transform="translate(281,173)"/>
<path d="M0 0 C3.11937969 1.37252707 4.4897715 1.979543 6 5 C6.08400529 6.59447464 6.10727467 8.19240545 6.09765625 9.7890625 C6.09443359 10.73007813 6.09121094 11.67109375 6.08789062 12.640625 C6.07951172 13.62546875 6.07113281 14.6103125 6.0625 15.625 C6.05798828 16.61757812 6.05347656 17.61015625 6.04882812 18.6328125 C6.03702145 21.0886016 6.020554 23.54427104 6 26 C3.69 26 1.38 26 -1 26 C-1.33 25.34 -1.66 24.68 -2 24 C-2.99 24.66 -3.98 25.32 -5 26 C-11.94214876 26.66115702 -11.94214876 26.66115702 -15.5 24.4375 C-17.60020266 21.02467068 -17.63210717 18.93311127 -17 15 C-13.16851512 10.27450199 -7.7127774 9.84305065 -2 9 C-1.67 8.01 -1.34 7.02 -1 6 C-3.31 6 -5.62 6 -8 6 C-8.33 6.66 -8.66 7.32 -9 8 C-11.31 8 -13.62 8 -16 8 C-15.68112268 5.05038481 -15.46685059 3.44975766 -13.29296875 1.35546875 C-9.16402945 -1.0853182 -4.64696242 -0.52321355 0 0 Z " fill="#D6DFE5" transform="translate(252,182)"/>
<path d="M0 0 C2.31 0 4.62 0 7 0 C7.33 3.63 7.66 7.26 8 11 C8.99 10.34 9.98 9.68 11 9 C17.85534334 8.22600962 17.85534334 8.22600962 21.73828125 10.8515625 C25.03061226 15.43466923 24.55214648 19.32275226 24.3125 24.8125 C24.28994141 25.79154297 24.26738281 26.77058594 24.24414062 27.77929688 C24.18539727 30.18777455 24.10332129 32.59309078 24 35 C21.69 35 19.38 35 17 35 C16.93941406 33.71222656 16.87882812 32.42445313 16.81640625 31.09765625 C16.73201753 29.41925841 16.6473687 27.74087364 16.5625 26.0625 C16.52318359 25.21236328 16.48386719 24.36222656 16.44335938 23.48632812 C16.40146484 22.67744141 16.35957031 21.86855469 16.31640625 21.03515625 C16.27974854 20.2862915 16.24309082 19.53742676 16.20532227 18.76586914 C16.18228937 16.97538674 16.18228937 16.97538674 15 16 C12 15.83333333 12 15.83333333 9 16 C7.48578999 17.51421001 7.78690144 18.92472768 7.68359375 21.03515625 C7.64169922 21.84404297 7.59980469 22.65292969 7.55664062 23.48632812 C7.51732422 24.33646484 7.47800781 25.18660156 7.4375 26.0625 C7.39431641 26.91650391 7.35113281 27.77050781 7.30664062 28.65039062 C7.20023298 30.76672037 7.09958269 32.88333813 7 35 C4.69 35 2.38 35 0 35 C0 23.45 0 11.9 0 0 Z " fill="#DBE2E9" transform="translate(206,173)"/>
<path d="M0 0 C2.31 0 4.62 0 7 0 C7.33 0.99 7.66 1.98 8 3 C8.40476562 2.51660156 8.80953125 2.03320312 9.2265625 1.53515625 C11.40139032 -0.34745902 12.52879165 -0.48964484 15.375 -0.5625 C16.12523437 -0.60503906 16.87546875 -0.64757812 17.6484375 -0.69140625 C20.57460469 0.16894523 22.18542756 1.62246351 24.02734375 4.0324707 C25.9622256 7.94642974 25.51022816 12.11015562 25.3125 16.375 C25.28994141 17.30183594 25.26738281 18.22867188 25.24414062 19.18359375 C25.18553677 21.45742335 25.1035693 23.72784886 25 26 C22.36 26 19.72 26 17 26 C16.93941406 24.71222656 16.87882812 23.42445313 16.81640625 22.09765625 C16.73201753 20.41925841 16.6473687 18.74087364 16.5625 17.0625 C16.52318359 16.21236328 16.48386719 15.36222656 16.44335938 14.48632812 C16.40146484 13.67744141 16.35957031 12.86855469 16.31640625 12.03515625 C16.27974854 11.2862915 16.24309082 10.53742676 16.20532227 9.76586914 C16.18228937 7.97538674 16.18228937 7.97538674 15 7 C12.5 6.83333333 12.5 6.83333333 10 7 C8.48578999 8.51421001 8.78690144 9.92472768 8.68359375 12.03515625 C8.64169922 12.84404297 8.59980469 13.65292969 8.55664062 14.48632812 C8.51732422 15.33646484 8.47800781 16.18660156 8.4375 17.0625 C8.39431641 17.91650391 8.35113281 18.77050781 8.30664062 19.65039062 C8.20023298 21.76672037 8.09958269 23.88333813 8 26 C5.36 26 2.72 26 0 26 C0 17.42 0 8.84 0 0 Z " fill="#CCD4DA" transform="translate(322,182)"/>
<path d="M0 0 C2.31 0 4.62 0 7 0 C7.06058594 1.20398438 7.12117188 2.40796875 7.18359375 3.6484375 C7.26799732 5.22397077 7.35264541 6.79949096 7.4375 8.375 C7.47681641 9.1690625 7.51613281 9.963125 7.55664062 10.78125 C7.68893404 15.02601221 7.68893404 15.02601221 9 19 C11.41619823 19.25030977 11.41619823 19.25030977 14 19 C16.48044315 15.27933528 16.44381173 12.13459526 16.625 7.8125 C16.66367187 7.06291016 16.70234375 6.31332031 16.7421875 5.54101562 C16.83628216 3.69440801 16.91922319 1.8472381 17 0 C19.31 0 21.62 0 24 0 C24 8.58 24 17.16 24 26 C21.69 26 19.38 26 17 26 C16.67 25.01 16.34 24.02 16 23 C15.484375 23.495 14.96875 23.99 14.4375 24.5 C11.0761612 26.56851618 8.88040089 26.48505011 5 26 C2.63502561 24.13291495 1.33969285 22.67938569 0 20 C-0.08372659 18.47851674 -0.10730027 16.95344222 -0.09765625 15.4296875 C-0.09443359 14.53378906 -0.09121094 13.63789063 -0.08789062 12.71484375 C-0.07951172 11.77769531 -0.07113281 10.84054688 -0.0625 9.875 C-0.05798828 8.93011719 -0.05347656 7.98523438 -0.04882812 7.01171875 C-0.03702357 4.67441613 -0.02055759 2.33723939 0 0 Z " fill="#DAE1E8" transform="translate(371,182)"/>
<path d="M0 0 C3.66072374 0.50441077 5.54969484 1.50254823 7.86328125 4.39453125 C7.86328125 5.38453125 7.86328125 6.37453125 7.86328125 7.39453125 C3.42118768 7.502875 -0.75086546 7.09626778 -5.13671875 6.39453125 C-5.13671875 7.38453125 -5.13671875 8.37453125 -5.13671875 9.39453125 C-3.91984375 9.66265625 -2.70296875 9.93078125 -1.44921875 10.20703125 C2.45463666 11.17607337 5.95629922 12.48754922 8.86328125 15.39453125 C9.17578125 18.20703125 9.17578125 18.20703125 8.86328125 21.39453125 C6.99618215 23.69728681 5.50680384 25.07276996 2.86328125 26.39453125 C-2.28385317 26.90012738 -6.68165379 27.20936763 -11.26171875 24.64453125 C-13.08947467 22.45122414 -13.8356767 21.20425706 -14.13671875 18.39453125 C-10.76171875 18.26953125 -10.76171875 18.26953125 -7.13671875 18.39453125 C-6.47671875 19.05453125 -5.81671875 19.71453125 -5.13671875 20.39453125 C-2.05324049 20.56134234 -2.05324049 20.56134234 0.86328125 20.39453125 C1.19328125 19.40453125 1.52328125 18.41453125 1.86328125 17.39453125 C1.03183594 17.21277344 0.20039063 17.03101563 -0.65625 16.84375 C-1.74292969 16.59238281 -2.82960937 16.34101563 -3.94921875 16.08203125 C-5.02816406 15.83839844 -6.10710937 15.59476563 -7.21875 15.34375 C-10.11601587 14.40126592 -11.39509305 13.85189354 -13.13671875 11.39453125 C-13.6260609 7.54970004 -13.86294673 5.35541308 -11.48046875 2.203125 C-7.78117705 -0.6514951 -4.51699742 -0.148912 0 0 Z " fill="#D8E0E6" transform="translate(192.13671875,181.60546875)"/>
<path d="M0 0 C2.77368747 1.37046369 3.91538099 2.58623062 6 5 C6 6.32 6 7.64 6 9 C3.1875 9.1875 3.1875 9.1875 0 9 C-1 8 -2 7 -3 6 C-6.31818985 6.24205349 -6.31818985 6.24205349 -9 8 C-9.1245486 9.64230364 -9.17568524 11.29052276 -9.1875 12.9375 C-9.20876953 14.28134766 -9.20876953 14.28134766 -9.23046875 15.65234375 C-9.23194769 18.19114534 -9.23194769 18.19114534 -7 20 C-4.46048456 19.90888062 -4.46048456 19.90888062 -2 19 C-1.34 18.01 -0.68 17.02 0 16 C3.625 15.8125 3.625 15.8125 7 16 C6.79396857 19.60555003 5.98789733 21.01433211 3.625 23.8125 C-0.11321123 26.66367806 -3.86240828 26.70584675 -8.4375 26.48828125 C-12.27139139 25.75773792 -13.81972773 24.16491137 -16 21 C-18.31473886 16.92165059 -18.73854601 12.60240259 -18 8 C-13.92545511 0.14194914 -8.44540945 -1.31461562 0 0 Z " fill="#CFD6DD" transform="translate(311,182)"/>
<path d="M0 0 C2.31 0 4.62 0 7 0 C7 11.55 7 23.1 7 35 C4.69 35 2.38 35 0 35 C-0.495 33.515 -0.495 33.515 -1 32 C-1.66 32 -2.32 32 -3 32 C-2.125 27.125 -2.125 27.125 -1 26 C-0.45300321 20.13017032 -0.45300321 20.13017032 -3 15 C-3.66 14.34 -4.32 13.68 -5 13 C-4.35546875 12.78601563 -3.7109375 12.57203125 -3.046875 12.3515625 C-0.72160885 11.1526477 -0.72160885 11.1526477 -0.390625 8.3984375 C-0.34421875 7.40070313 -0.2978125 6.40296875 -0.25 5.375 C-0.19328125 4.37210938 -0.1365625 3.36921875 -0.078125 2.3359375 C-0.05234375 1.56507813 -0.0265625 0.79421875 0 0 Z " fill="#DCE2E9" transform="translate(281,173)"/>
<path d="M0 0 C1.98 0 3.96 0 6 0 C4.71252498 8.19951988 2.73119077 16.12358149 0.48608398 24.11010742 C-0.07008676 26.08950102 -0.61857589 28.0709101 -1.16601562 30.05273438 C-3.85486535 39.70973069 -3.85486535 39.70973069 -5 42 C-6.98 42 -8.96 42 -11 42 C-7.71228879 27.87697335 -4.30565573 13.85049431 0 0 Z " fill="#D6DCE3" transform="translate(361,171)"/>
<path d="M0 0 C2.4375 0.8125 2.4375 0.8125 4.4375 2.8125 C6.42571313 3.21014263 8.42694339 3.55025349 10.4375 3.8125 C10.7675 3.1525 11.0975 2.4925 11.4375 1.8125 C11.4375 2.4725 11.4375 3.1325 11.4375 3.8125 C12.7575 3.4825 14.0775 3.1525 15.4375 2.8125 C15.4375 5.4525 15.4375 8.0925 15.4375 10.8125 C13.4575 11.8025 13.4575 11.8025 11.4375 12.8125 C11.4375 12.1525 11.4375 11.4925 11.4375 10.8125 C6.40271559 11.04663974 6.40271559 11.04663974 2.5 13.875 C2.149375 14.514375 1.79875 15.15375 1.4375 15.8125 C-3.3125 15.0625 -3.3125 15.0625 -5.5625 12.8125 C-5.86328125 10.53515625 -5.86328125 10.53515625 -5.875 7.875 C-5.89175781 6.99972656 -5.90851563 6.12445313 -5.92578125 5.22265625 C-5.5625 2.8125 -5.5625 2.8125 -4.203125 0.984375 C-2.5625 -0.1875 -2.5625 -0.1875 0 0 Z " fill="#0C141A" transform="translate(306.5625,187.1875)"/>
<path d="M0 0 C2.31 0 4.62 0 7 0 C7 8.58 7 17.16 7 26 C4.69 26 2.38 26 0 26 C0 17.42 0 8.84 0 0 Z " fill="#D9E1E7" transform="translate(401,182)"/>
<path d="M0 0 C0.99 0.33 1.98 0.66 3 1 C3 1.66 3 2.32 3 3 C6.3 2.67 9.6 2.34 13 2 C12.979375 3.051875 12.95875 4.10375 12.9375 5.1875 C12.98896802 8.32704904 13.26517187 10.96883396 14 14 C13.34 13.34 12.68 12.68 12 12 C11.01 12.66 10.02 13.32 9 14 C2.05785124 14.66115702 2.05785124 14.66115702 -1.5 12.4375 C-3.56021138 9.08965651 -3.49125459 6.85985753 -3 3 C-1.5 1.0625 -1.5 1.0625 0 0 Z " fill="#D2DAE0" transform="translate(238,194)"/>
<path d="M0 0 C0.33 0 0.66 0 1 0 C1 11.55 1 23.1 1 35 C0.67 35 0.34 35 0 35 C-0.33 33.02 -0.66 31.04 -1 29 C-1.99 29 -2.98 29 -4 29 C-4.20625 28.071875 -4.4125 27.14375 -4.625 26.1875 C-5.72687282 22.82491922 -5.72687282 22.82491922 -8.6875 21.25 C-12.10802596 19.95923549 -15.46351529 18.91948603 -19 18 C-18.67 16.68 -18.34 15.36 -18 14 C-17.02417969 14.08378906 -16.04835937 14.16757813 -15.04296875 14.25390625 C-13.13451172 14.40666016 -13.13451172 14.40666016 -11.1875 14.5625 C-9.92292969 14.66691406 -8.65835938 14.77132812 -7.35546875 14.87890625 C-4.00418816 15.19597178 -4.00418816 15.19597178 -1 14 C-0.67 9.38 -0.34 4.76 0 0 Z " fill="#0D141B" transform="translate(205,173)"/>
<path d="M0 0 C2.375 0.9375 2.375 0.9375 4.375 3.9375 C4.640625 5.875 4.640625 5.875 4.625 7.9375 C4.63015625 8.618125 4.6353125 9.29875 4.640625 10 C4.375 11.9375 4.375 11.9375 2.375 14.9375 C-0.69497072 15.32941116 -2.73865285 15.41021848 -5.5 13.9375 C-7.31065793 10.71855257 -7.26525229 7.48022932 -6.625 3.9375 C-4.58594256 0.84115352 -3.74721416 -0.08921938 0 0 Z " fill="#11181F" transform="translate(276.625,187.0625)"/>
<path d="M0 0 C2.31 0.33 4.62 0.66 7 1 C6.67 2.32 6.34 3.64 6 5 C5.15695313 5.19335938 4.31390625 5.38671875 3.4453125 5.5859375 C2.34960938 5.84632813 1.25390625 6.10671875 0.125 6.375 C-0.96554688 6.63023437 -2.05609375 6.88546875 -3.1796875 7.1484375 C-6.10408455 7.78906215 -6.10408455 7.78906215 -8 10 C-8.39764263 11.98821313 -8.73775349 13.98944339 -9 16 C-9.99 14.68 -10.98 13.36 -12 12 C-12.33 14.97 -12.66 17.94 -13 21 C-13.33 21 -13.66 21 -14 21 C-14.10787818 18.22813012 -14.18723327 15.46044463 -14.25 12.6875 C-14.28351563 11.90181641 -14.31703125 11.11613281 -14.3515625 10.30664062 C-14.45062137 4.48693177 -14.45062137 4.48693177 -12.109375 1.95703125 C-10 1 -10 1 -8 1 C-8 1.66 -8 2.32 -8 3 C-5.69 3 -3.38 3 -1 3 C-0.67 2.01 -0.34 1.02 0 0 Z " fill="#0E161C" transform="translate(244,187)"/>
<path d="M0 0 C1.98 0 3.96 0 6 0 C4.69951304 7.77232205 2.99548103 15.37726245 1 23 C0.38125 22.34 -0.2375 21.68 -0.875 21 C-2.75637427 18.7715451 -2.75637427 18.7715451 -5 19 C-4.35720991 16.20760027 -3.71091335 13.41609416 -3.0625 10.625 C-2.88009766 9.8309375 -2.69769531 9.036875 -2.50976562 8.21875 C-2.33251953 7.45820313 -2.15527344 6.69765625 -1.97265625 5.9140625 C-1.81031494 5.2123291 -1.64797363 4.5105957 -1.48071289 3.78759766 C-1 2 -1 2 0 0 Z " fill="#CDD3DA" transform="translate(361,171)"/>
<path d="M0 0 C10.87988033 -0.62468212 10.87988033 -0.62468212 15.25 1.8125 C17 4 17 4 17 7 C13.62041532 7.08242889 10.59649818 6.9327497 7.25 6.375 C5.64125 6.189375 5.64125 6.189375 4 6 C3.34 6.66 2.68 7.32 2 8 C0.875 3.25 0.875 3.25 2 1 C1.34 0.67 0.68 0.34 0 0 Z " fill="#DAE0E7" transform="translate(183,182)"/>
<path d="M0 0 C7.76785714 -0.66964286 7.76785714 -0.66964286 11.5 2.25 C14 5 14 5 14 9 C11.1875 9.1875 11.1875 9.1875 8 9 C6.4375 7.625 6.4375 7.625 5 6 C2.40084462 4.80972016 2.40084462 4.80972016 0 4 C0 2.68 0 1.36 0 0 Z " fill="#D8E1E7" transform="translate(303,182)"/>
<path d="M0 0 C2.35694954 0.09031574 4.71153582 0.24688128 7.0625 0.4375 C8.35285156 0.53933594 9.64320313 0.64117187 10.97265625 0.74609375 C12.47119141 0.87177734 12.47119141 0.87177734 14 1 C14 1.66 14 2.32 14 3 C12.02 3.99 12.02 3.99 10 5 C10 5.66 10 6.32 10 7 C6.7 6.34 3.4 5.68 0 5 C-0.33 3.68 -0.66 2.36 -1 1 C-0.67 0.67 -0.34 0.34 0 0 Z " fill="#10161D" transform="translate(187,187)"/>
<path d="M0 0 C0 0.99 0 1.98 0 3 C-0.66 3 -1.32 3 -2 3 C-2.33 4.65 -2.66 6.3 -3 8 C-5.31 8 -7.62 8 -10 8 C-9.67372714 4.98197607 -9.38918764 3.40308719 -7.25 1.1875 C-4.62847443 -0.19608294 -2.92325122 -0.24360427 0 0 Z " fill="#C8CED5" transform="translate(246,182)"/>
<path d="M0 0 C-0.875 5.875 -0.875 5.875 -2 7 C-3.99958364 7.04080783 -6.00045254 7.04254356 -8 7 C-8.33 5.35 -8.66 3.7 -9 2 C-2.25 0 -2.25 0 0 0 Z " fill="#121920" transform="translate(251,196)"/>
<path d="M0 0 C3.375 -0.1875 3.375 -0.1875 7 0 C9 3 9 3 8.625 5.6875 C8.41875 6.450625 8.2125 7.21375 8 8 C4.11137013 6.73882275 2.10624401 5.54735833 0 2 C0 1.34 0 0.68 0 0 Z " fill="#CED5DC" transform="translate(178,200)"/>
<path d="M0 0 C1.67542976 0.28604898 3.34385343 0.61781233 5 1 C5.38218767 2.65614657 5.71395102 4.32457024 6 6 C5 7 5 7 2.5 7.125 C0 7 0 7 -1 6 C-1.125 3.5 -1.125 3.5 -1 1 C-0.67 0.67 -0.34 0.34 0 0 Z " fill="#D0D6DD" transform="translate(402,171)"/>
<path d="M0 0 C1.45903258 0.30921884 2.91720722 0.62248799 4.375 0.9375 C5.18710938 1.11152344 5.99921875 1.28554687 6.8359375 1.46484375 C9 2 9 2 11 3 C10.67 4.32 10.34 5.64 10 7 C7.125 7.1875 7.125 7.1875 4 7 C3.34 6.01 2.68 5.02 2 4 C2.66 4 3.32 4 4 4 C4 3.34 4 2.68 4 2 C2.68 1.67 1.36 1.34 0 1 C0 0.67 0 0.34 0 0 Z " fill="#141D23" transform="translate(183,196)"/>
<path d="M0 0 C2.64 0 5.28 0 8 0 C8 1.32 8 2.64 8 4 C8.66 4 9.32 4 10 4 C9.67 4.66 9.34 5.32 9 6 C8.21625 5.95875 7.4325 5.9175 6.625 5.875 C3.83883881 5.71271266 3.83883881 5.71271266 2 8 C0.875 3.25 0.875 3.25 2 1 C1.34 0.67 0.68 0.34 0 0 Z " fill="#D0D6DD" transform="translate(183,182)"/>
<path d="M0 0 C1.32 0 2.64 0 4 0 C3.25 4.75 3.25 4.75 1 7 C0.01 7 -0.98 7 -2 7 C-2.125 4.625 -2.125 4.625 -2 2 C-1.34 1.34 -0.68 0.68 0 0 Z " fill="#D9E1E7" transform="translate(313,199)"/>
<path d="M0 0 C1.2380014 3.57644848 0.74926071 6.33694766 0 10 C-1.32 9.34 -2.64 8.68 -4 8 C-4 4 -4 4 -2 1.75 C-1.01 0.88375 -1.01 0.88375 0 0 Z " fill="#E0E5EC" transform="translate(357,197)"/>
<path d="M0 0 C0.33 0.99 0.66 1.98 1 3 C0.01 3.33 -0.98 3.66 -2 4 C-2 4.66 -2 5.32 -2 6 C-3.65 5.67 -5.3 5.34 -7 5 C-6 2 -6 2 -4.0625 0.8125 C-2 0 -2 0 0 0 Z " fill="#CFD8DE" transform="translate(219,182)"/>
<path d="M0 0 C2.64 0 5.28 0 8 0 C8 0.66 8 1.32 8 2 C6.02 2.99 6.02 2.99 4 4 C4 4.66 4 5.32 4 6 C2.68 5.67 1.36 5.34 0 5 C0 3.35 0 1.7 0 0 Z " fill="#383F46" transform="translate(193,188)"/>
<path d="M0 0 C1.65 0 3.3 0 5 0 C5.66 1.32 6.32 2.64 7 4 C2.545 4.495 2.545 4.495 -2 5 C-2 4.34 -2 3.68 -2 3 C-1.34 3 -0.68 3 0 3 C0 2.01 0 1.02 0 0 Z " fill="#DFE7ED" transform="translate(246,182)"/>
<path d="M0 0 C0 0.33 0 0.66 0 1 C-1.093125 1.28875 -2.18625 1.5775 -3.3125 1.875 C-7.04013845 2.81893204 -7.04013845 2.81893204 -10 5 C-10 3.68 -10 2.36 -10 1 C-6.42181037 -1.33958553 -4.07775191 -0.9267618 0 0 Z " fill="#2B3239" transform="translate(339,181)"/>
<path d="M0 0 C4.455 0.99 4.455 0.99 9 2 C8.01 2.33 7.02 2.66 6 3 C6 3.66 6 4.32 6 5 C4.68 4.67 3.36 4.34 2 4 C2.66 4 3.32 4 4 4 C4 3.34 4 2.68 4 2 C2.68 1.67 1.36 1.34 0 1 C0 0.67 0 0.34 0 0 Z " fill="#242C32" transform="translate(183,196)"/>
</svg>
